<svg xmlns="http://www.w3.org/2000/svg" viewBox="0 0 451.9 415.21"><g data-name="Layer 2"><g data-name="Layer 1"><rect width="78.73" height="55.44" x="84.45" y="56.71" fill="none" stroke="#008ef8" stroke-linecap="round" stroke-linejoin="round" transform="rotate(-164.89 123.814 84.427)"/><circle cx="72.16" cy="84.43" r="35.21" fill="#c1e3f7"/><rect width="103.76" height="74.3" x="48.29" y="332.44" fill="#008ef8" rx="11" transform="rotate(-12.9 100.167 369.577)"/><rect width="86.73" height="57.27" x="56.81" y="340.96" fill="#c1e3f7" rx="8.33" transform="rotate(-12.9 100.167 369.577)"/><rect width="38.47" height="18.06" x="68.18" y="354.22" fill="#008ef8" rx="2" transform="rotate(-12.9 87.4 363.251)"/><rect width="47.82" height="13.65" x="88.74" y="375.3" fill="#008ef8" rx="2" transform="rotate(-12.9 112.633 382.14)"/><rect width="103.76" height="74.3" x="298.74" y="76.48" fill="#008ef8" rx="11" transform="rotate(-11.4 350.499 113.605)"/><rect width="36.24" height="57.41" x="356.39" y="79.66" fill="#c1e3f7" rx="3.66" transform="rotate(-11.4 374.397 108.351)"/><rect width="42.2" height="20.24" x="305.08" y="89.03" fill="#c1e3f7" rx="3.66" transform="rotate(-11.4 326.091 99.128)"/><rect width="42.2" height="7.32" x="313.7" y="138.26" fill="#c1e3f7" rx="2" transform="rotate(-11.4 334.675 141.876)"/><rect width="18.79" height="18.79" x="310.26" y="116.61" fill="#c1e3f7" rx="3.66" transform="rotate(-11.4 319.564 125.999)"/><rect width="18.79" height="18.79" x="332" y="112.23" fill="#c1e3f7" rx="3.66" transform="rotate(-11.4 341.303 121.592)"/><path fill="#0850ec" d="M214.64,13.59c.55,2.62.91,5.25,1.2,7.88s.49,5.28.65,7.92.22,5.29.21,7.94-.08,5.31-.35,8a79.63,79.63,0,0,1-1.21-7.89c-.3-2.64-.49-5.28-.65-7.92s-.22-5.29-.2-7.94A78.83,78.83,0,0,1,214.64,13.59Z"/><path fill="#0850ec" d="M231.35 28.59a75.92 75.92 0 01-7.89 1.2c-2.63.31-5.27.49-7.91.65s-5.29.23-8 .21a79 79 0 01-8-.35 78.74 78.74 0 017.89-1.21c2.63-.3 5.28-.48 7.92-.64s5.29-.22 7.94-.21S228.69 28.32 231.35 28.59zM235.57 33a36.16 36.16 0 011.06 5.29c.24 1.78.42 3.55.51 5.33s.12 3.56.07 5.35a36.35 36.35 0 01-.49 5.38 36.2 36.2 0 01-1.07-5.29c-.24-1.78-.41-3.55-.5-5.33s-.12-3.57-.07-5.35A36.35 36.35 0 01235.57 33z"/><path fill="#0850ec" d="M246.82,43.13a36.16,36.16,0,0,1-5.29,1.06c-1.78.25-3.55.42-5.33.51s-3.57.12-5.35.07a36.35,36.35,0,0,1-5.38-.49,37.57,37.57,0,0,1,5.29-1.07c1.77-.24,3.55-.41,5.33-.5s3.56-.12,5.35-.07A36.35,36.35,0,0,1,246.82,43.13Z"/><path fill="#0234c1" d="M15,299.37c.55,2.62.91,5.25,1.2,7.88s.49,5.28.65,7.92.22,5.29.21,7.94a79.17,79.17,0,0,1-.36,8c-.55-2.63-.91-5.26-1.2-7.89s-.49-5.28-.65-7.92-.22-5.29-.2-7.94A76,76,0,0,1,15,299.37Z"/><path fill="#0234c1" d="M31.72 314.37a75.92 75.92 0 01-7.89 1.2c-2.63.31-5.27.49-7.92.65s-5.29.23-7.94.21a79 79 0 01-8-.35 78.74 78.74 0 017.89-1.21c2.63-.3 5.27-.48 7.92-.64s5.29-.22 7.94-.21S29.05 314.1 31.72 314.37zM35.94 318.81A36.16 36.16 0 0137 324.1c.24 1.78.42 3.55.51 5.33s.12 3.56.07 5.35a36.35 36.35 0 01-.49 5.38A36.2 36.2 0 0136 334.87c-.24-1.78-.42-3.55-.51-5.33s-.11-3.56-.06-5.35A36.35 36.35 0 0135.94 318.81z"/><path fill="#0234c1" d="M47.19 328.91a36.56 36.56 0 01-5.3 1.06c-1.77.25-3.54.42-5.32.51s-3.57.12-5.36.07a36.6 36.6 0 01-5.38-.49 38 38 0 015.3-1.07c1.77-.24 3.55-.41 5.33-.5s3.56-.12 5.35-.07A36.35 36.35 0 0147.19 328.91zM419.72 257.57c.55 2.62.91 5.26 1.2 7.89s.49 5.28.65 7.92.22 5.29.21 7.94a78.84 78.84 0 01-.36 8c-.55-2.62-.91-5.25-1.2-7.88s-.49-5.28-.65-7.92-.22-5.29-.2-7.94A79 79 0 01419.72 257.57z"/><path fill="#0234c1" d="M436.43 272.58c-2.62.55-5.25.91-7.89 1.2s-5.27.49-7.92.65-5.29.23-7.94.21a79 79 0 01-8-.35 78.74 78.74 0 017.89-1.21c2.63-.3 5.27-.48 7.92-.64s5.29-.23 7.94-.21A79 79 0 01436.43 272.58zM440.65 277a36.56 36.56 0 011.06 5.3c.24 1.77.42 3.55.51 5.33s.12 3.56.07 5.35a36.35 36.35 0 01-.49 5.38 36.33 36.33 0 01-1.07-5.3c-.24-1.77-.42-3.54-.51-5.32s-.11-3.57-.06-5.35A36.61 36.61 0 01440.65 277z"/><path fill="#0234c1" d="M451.9,287.12a36.29,36.29,0,0,1-5.3,1.06c-1.77.24-3.54.42-5.32.51s-3.57.12-5.35.07a36.61,36.61,0,0,1-5.39-.49,36.6,36.6,0,0,1,5.3-1.07c1.77-.24,3.55-.42,5.33-.51s3.56-.11,5.35-.06A36.35,36.35,0,0,1,451.9,287.12Z"/><path fill="#c1e3f7" d="M177.6 182.13C179 166.53 191.29 156.51 192 156c8.05-6.36 10.58-3.21 25-11.29 6.48-3.63 12.58-7.11 18.64-13.88 5.73-6.4 10.33-11.54 11.89-19.43.76-3.85.63-7.45 3.56-10.07 2.24-2 6-3.14 8.71-1.82 4.08 2 4.91 8.92 3.81 13.55-1 4.11-3.28 5.52-2.49 8.27.7 2.47 2.93 2.63 5.13 5.19 3.6 4.2 3.13 10.16 3 11.85-.61 7.69-5.71 9.29-5.61 17.07.05 3.33 1 3.18.83 6.29-.28 5.66-3.55 9.82-6.52 13.48-5 6.17-7.05 5.55-10.56 11.08-2.87 4.5-1.9 5.54-4.38 8.36-4.64 5.27-11.83 6-13.72 6.14-7.37.71-13.25-2.12-18.78-4.79-8.84-4.27-9-7-13.67-7.24-8.17-.37-12.44 7.93-16.41 6.06C176.63 193 177.43 184 177.6 182.13zM131.41 204.45c-13-8.67-28.56-5.32-29.42-5.12-10 2.3-9.12 6.25-24.45 12.48-6.88 2.79-13.41 5.38-22.48 5.88-8.58.47-15.46.85-22.6-2.86-3.48-1.81-6.21-4.17-10.09-3.51-2.95.51-6.18 2.7-6.86 5.66-1 4.42 3.9 9.41 8.2 11.44 3.82 1.8 6.36.89 8 3.22 1.49 2.09.23 3.93.85 7.25 1 5.44 6 8.79 7.38 9.74 6.39 4.33 10.83 1.35 16.84 6.29 2.56 2.11 1.86 2.75 4.39 4.57 4.59 3.33 9.88 3.37 14.6 3.34 7.93 0 8.73-2 15.25-1.33 5.3.58 5.5 2 9.26 1.81 7-.33 12-5.51 13.37-6.88 5.16-5.31 6.61-11.67 8-17.66 2.19-9.56.15-11.43 2.89-15.19 4.81-6.61 14-4.76 15-9C140.5 210.48 133 205.51 131.41 204.45z"/><path fill="#008ef8" d="M195 175.44a31.81 31.81 0 013.08-6.45 28 28 0 014.61-5.52 23.57 23.57 0 016-4 49.8 49.8 0 016.76-2.46 141.2 141.2 0 0013.49-4.49c2.21-.85 4.4-1.77 6.56-2.74s4.32-2 6.47-3c-2 1.23-4.14 2.35-6.26 3.45s-4.29 2.06-6.48 3a124.7 124.7 0 01-13.49 4.74 46.79 46.79 0 00-6.66 2.32A25.11 25.11 0 00203.2 164 31.8 31.8 0 00195 175.44zM255 134c1.25-2.82 2.5-5.59 3.56-8.43.54-1.42 1-2.86 1.51-4.3l1.35-4.39a26.33 26.33 0 01-.59 4.59 34 34 0 01-1.34 4.45A30.59 30.59 0 01255 134zM249.43 164.92c2.51-1.75 5-3.46 7.35-5.33 1.19-.92 2.35-1.88 3.5-2.86l3.41-3a26.11 26.11 0 01-2.87 3.59 34.33 34.33 0 01-3.42 3.08A30.16 30.16 0 01249.43 164.92zM234.42 187.6c2.71-.79 5.39-1.49 8-2.35 1.33-.42 2.63-.87 4-1.33l3.95-1.44a27.12 27.12 0 01-7.6 3.72A28.09 28.09 0 01234.42 187.6zM115.31 213.85a31.7 31.7 0 00-14-.71 25.19 25.19 0 00-6.62 2.22 48.58 48.58 0 00-6 3.75 123 123 0 01-12.13 7.57c-2.1 1.12-4.23 2.19-6.4 3.19s-4.36 1.91-6.59 2.73c2.14-1 4.28-2.06 6.38-3.17s4.19-2.22 6.24-3.42c4.11-2.37 8.07-4.95 11.93-7.72a48.46 48.46 0 016.15-3.74 23.54 23.54 0 016.89-2.17 27.93 27.93 0 017.19-.15A31.73 31.73 0 01115.31 213.85zM28.11 229.11l4.28 1.69c1.42.52 2.85 1 4.3 1.5 2.88.95 5.82 1.7 8.81 2.49a30.45 30.45 0 01-9.12-1.54 34.83 34.83 0 01-4.3-1.74A26.69 26.69 0 0128.11 229.11zM55.43 253.91l4.49-.77c1.48-.3 2.95-.59 4.42-.95 2.93-.68 5.81-1.55 8.75-2.42a29.37 29.37 0 01-8.52 3.39A28.46 28.46 0 0155.43 253.91zM86.23 261.47l3.59-2.19c1.18-.74 2.35-1.47 3.5-2.25 2.32-1.53 4.55-3.17 6.86-4.81a27.73 27.73 0 01-6.3 5.64A27.23 27.23 0 0186.23 261.47z"/><path fill="#ffcd52" d="M206.19,248.14c2.14-3.7,5.57-10.93,4.67-19.79-.88-8.65-5.44-14.54-11.36-22-8.15-10.25-11.3-9.83-21.43-21.16-8.19-9.16-12.69-14.19-14.18-22-2-10.57.65-17.56,3.41-22.06l-56.81,10.51c-2.76,4.5-7.44,13.74-5.43,24.31,1.49,7.82,6,12.85,14.18,22,10.13,11.33,13.27,10.91,21.42,21.16,5.93,7.45,10.49,13.34,11.36,22,.9,8.86-2.53,16.1-4.66,19.79Z"/><ellipse cx="137.34" cy="145.31" fill="none" stroke="#008ef8" stroke-linecap="round" stroke-linejoin="round" rx="62.61" ry="7.23" transform="rotate(-11.13 137.366 145.329)"/><path fill="#c1e3f7" d="M313.86 267c1.39-15.6 13.69-25.62 14.38-26.17 8.05-6.36 10.59-3.21 25-11.29 6.48-3.63 12.57-7.11 18.63-13.88 5.73-6.4 10.33-11.54 11.89-19.43.77-3.85.63-7.45 3.57-10.07 2.24-2 6-3.14 8.7-1.82 4.08 2 4.91 8.92 3.81 13.55-1 4.11-3.28 5.52-2.49 8.27.7 2.47 2.93 2.63 5.13 5.19 3.61 4.2 3.13 10.16 3 11.85-.62 7.69-5.72 9.29-5.61 17.07 0 3.33 1 3.18.82 6.29-.28 5.66-3.55 9.82-6.52 13.48-5 6.17-7.05 5.55-10.56 11.08-2.86 4.5-1.89 5.54-4.38 8.36-4.64 5.27-11.83 6-13.72 6.14-7.37.71-13.24-2.12-18.78-4.79-8.84-4.27-9-7-13.67-7.24-8.17-.37-12.43 7.93-16.41 6.06C312.89 277.82 313.69 268.86 313.86 267zM267.67 289.27c-13.05-8.67-28.55-5.32-29.42-5.12-10 2.3-9.12 6.25-24.45 12.48-6.88 2.79-13.41 5.38-22.48 5.88-8.58.47-15.46.85-22.6-2.86-3.48-1.81-6.21-4.17-10.08-3.51-3 .51-6.19 2.7-6.86 5.66-1 4.42 3.89 9.41 8.19 11.44 3.82 1.8 6.36.89 8 3.22 1.48 2.09.22 3.93.84 7.25 1 5.44 6 8.79 7.38 9.74 6.39 4.33 10.83 1.35 16.84 6.29 2.56 2.11 1.86 2.75 4.39 4.57 4.6 3.33 9.88 3.37 14.6 3.34 7.93 0 8.74-2 15.25-1.33 5.3.58 5.51 2 9.26 1.81 7-.33 12-5.51 13.37-6.88 5.16-5.31 6.62-11.67 8-17.66 2.19-9.56.15-11.43 2.89-15.19 4.81-6.61 14-4.76 15-9C276.77 295.3 269.27 290.32 267.67 289.27z"/><path fill="#008ef8" d="M331.26 260.26a31.81 31.81 0 013.08-6.45 27.7 27.7 0 014.62-5.52 23.34 23.34 0 016-4 49.8 49.8 0 016.76-2.46 141.2 141.2 0 0013.49-4.49c2.21-.85 4.4-1.77 6.57-2.74s4.32-2 6.46-3c-2 1.23-4.14 2.35-6.25 3.45s-4.3 2.06-6.49 3A124.7 124.7 0 01352 242.76a46.79 46.79 0 00-6.66 2.32 25.53 25.53 0 00-5.88 3.78A31.92 31.92 0 00331.26 260.26zM391.23 218.83c1.25-2.82 2.5-5.59 3.56-8.43.54-1.42 1-2.86 1.52-4.3l1.34-4.39a25.41 25.41 0 01-.59 4.59 34 34 0 01-1.34 4.45A30 30 0 01391.23 218.83zM385.69 249.74c2.51-1.75 5-3.46 7.36-5.33 1.19-.92 2.34-1.88 3.49-2.86l3.42-3a25.45 25.45 0 01-2.88 3.59 33.26 33.26 0 01-3.42 3.08A30.16 30.16 0 01385.69 249.74zM370.68 272.42c2.72-.79 5.39-1.49 8-2.35 1.33-.42 2.64-.87 4-1.33l3.95-1.44A27.06 27.06 0 01379 271 28.21 28.21 0 01370.68 272.42zM251.57 298.67a31.7 31.7 0 00-14-.71 25.19 25.19 0 00-6.62 2.22 48.13 48.13 0 00-6 3.75 124.07 124.07 0 01-12.12 7.57c-2.11 1.12-4.24 2.19-6.4 3.19s-4.37 1.91-6.6 2.73c2.14-1 4.29-2.06 6.38-3.17s4.19-2.22 6.24-3.42c4.11-2.37 8.07-4.95 11.93-7.72a48.46 48.46 0 016.15-3.74 23.25 23.25 0 016.89-2.17 27.94 27.94 0 017.19-.15A31.73 31.73 0 01251.57 298.67zM164.38 313.93l4.27 1.69c1.43.52 2.85 1 4.3 1.5 2.89.95 5.82 1.7 8.81 2.49a30.5 30.5 0 01-9.12-1.54 34.83 34.83 0 01-4.3-1.74A26.09 26.09 0 01164.38 313.93zM191.69 338.73l4.49-.77c1.48-.3 3-.59 4.42-.95 2.94-.68 5.81-1.55 8.75-2.42a29.37 29.37 0 01-8.52 3.39A28.43 28.43 0 01191.69 338.73zM222.49 346.29l3.59-2.19c1.18-.74 2.36-1.47 3.51-2.25 2.32-1.53 4.54-3.17 6.85-4.81a27.52 27.52 0 01-6.3 5.64A27.23 27.23 0 01222.49 346.29z"/><path fill="#ffcd52" d="M342.46,333c2.13-3.7,5.56-10.93,4.66-19.79-.88-8.65-5.43-14.54-11.36-22-8.15-10.25-11.29-9.83-21.43-21.16-8.19-9.16-12.68-14.19-14.17-22-2-10.57.64-17.56,3.4-22.06l-56.8,10.51c-2.76,4.5-7.45,13.74-5.44,24.31,1.49,7.82,6,12.85,14.18,22,10.13,11.33,13.27,10.91,21.43,21.16,5.92,7.45,10.48,13.34,11.35,22,.9,8.86-2.53,16.1-4.66,19.79Z"/><ellipse cx="273.6" cy="230.13" fill="none" stroke="#008ef8" stroke-linecap="round" stroke-linejoin="round" rx="62.61" ry="7.23" transform="rotate(-11.13 273.686 230.152)"/><path fill="#ffedc5" d="M74.47 8.93L62.4 53.63A35.78 35.78 0 0161 49.08L71 12.14A34.29 34.29 0 0174.47 8.93zM66 18.61L59.9 41.05A39.3 39.3 0 0166 18.61zM81 4.63l-15.12 56c-.63-1-1.23-2.11-1.75-3.19l13.77-51A27.45 27.45 0 0181 4.63zM87.17 2L69.88 66a24.3 24.3 0 01-2-2.39L84.27 3.05A24.73 24.73 0 0187.17 2zM93.07.52L74.24 70.26a24.88 24.88 0 01-2.09-1.9L90.31 1.08A3.15 3.15 0 0190.7 1C91.48.8 92.28.65 93.07.52zM98.58 0L78.75 73.48c-.77-.47-1.5-1-2.21-1.48L95.93.15A23.67 23.67 0 0198.58 0zM103.85.2L83.4 75.94c-.79-.35-1.55-.71-2.3-1.12L101.29 0A19.77 19.77 0 01103.85.2zM109.11 1.12L88.41 77.79A20.33 20.33 0 0186 77L106.64.58C107.46.73 108.3.9 109.11 1.12zM114.19 2.75L93.62 79c-.83-.12-1.65-.27-2.48-.46L111.82 1.9A22.94 22.94 0 01114.19 2.75zM119.14 5.11L99.08 79.41c-.86 0-1.73 0-2.57-.12l20.35-75.4C117.62 4.28 118.4 4.67 119.14 5.11zM123.81 8.19L104.68 79.07a22.12 22.12 0 01-2.68.27l19.62-72.7A22.21 22.21 0 01123.81 8.19zM128.27 12.19L110.54 77.86c-.69.21-1.36.39-2 .55l-.77.16 18.46-68.4A28.09 28.09 0 01128.27 12.19zM132.3 17.14l-15.79 58.5a26.13 26.13 0 01-2.94 1.24l16.82-62.32A22.35 22.35 0 01132.3 17.14zM135.9 23.53L122.84 71.92a28.37 28.37 0 01-3.16 2l14.53-53.83A35.84 35.84 0 01135.9 23.53zM138.79 33.11L130.17 65a31.7 31.7 0 01-3.65 3.87l11-40.95c.28.91.54 1.87.76 2.81C138.51 31.54 138.66 32.34 138.79 33.11zM135.06 57.56L139.27 42A39.29 39.29 0 01135.06 57.56z"/></g></g></svg>