<svg xmlns="http://www.w3.org/2000/svg" enable-background="new 0 0 2000 2000" viewBox="0 0 2000 2000"><switch><g><path fill="#ffe6c4" d="M1173,1000c206.5-8.4,445.5-133.4,465.1-281.6c8.4-63.1-141.8,61-256.1-298.1
						c-50.2-157.7-275.3,406.7-455.5,268.1C809,597.9,703.3,514.7,735.2,635C765.7,749.9,966.5,1008.4,1173,1000z"/><path fill="#f9dede" d="M1405.5,1278.9c-252.1,94.9-3.4,180.5-80.2,285.3C1172.7,1772.4,335.6,1790,260,1677.8
						c-51.4-76.2,278.6-168,229.1-306c-40.8-113.7-301.9-156-281.2-259.6c0.2-1.1,0.5-2.2,0.8-3.3c4.3-16.1,16.3-29.3,37.8-49
						c5.1-4.7,10.7-9.7,16.9-15.2c20.2-17.9,229.6-204.4,440.9-190c169.5,11.6,148.9,139.5,350.6,194.2
						c46.1,12.5,88.4,17.3,127.3,16.9c148.9-1.5,249.4-78.8,334.3-91.4c28.2-4.2,54.7-1.2,80.6,14
						C1678.8,1036.5,1496.6,1244.6,1405.5,1278.9z"/><polygon fill="#e5bebe" points="481.8 1087.9 480.5 1105.6 480.3 1108.8 208.7 1108.8 455.2 1079.1"/><path fill="#679208" d="M402.6,898.4c0,0-27.7-17.3-15.9-44.7c11.8-27.4,9.7-46.8,9.7-46.8s19,29.5,16.5,54
						C410.3,885.3,402.6,898.4,402.6,898.4z"/><path fill="#899208" d="M509.2 526.9c0 0-52.5-29.4-23-83.4 29.5-54 60.5-48.4 60.5-48.4s12.3-66.2 90-26.1c0 0 55.6 21.2 45.8 63.4-9.8 42.2-46.6 47.9-46.6 47.9s9 41.8-39.3 53.2S509.2 526.9 509.2 526.9zM435.8 454.4c0 0-26.1 11.6-29.1-7.7 0 0-100.3 16.7-76.9-48.1 0 0-64-49.6-31.5-92.8s64.1-44.1 64.1-44.1 83-50.5 131.1 8.1c0 0 30.9 23.4 6.6 59.5 0 0 42.7 53.2-10.8 89.2S435.8 454.4 435.8 454.4zM426.5 806.1c0 0 12.4-26.8-15.9-48-28.3-21.2-28.1-16.1-33-28.3 0 0-7 23.8 12.1 41.2C408.6 788.3 426.5 806.1 426.5 806.1z"/><path fill="#c0473f" d="M483.9 573c2.2-8.5 4.8-16.5 7.6-24.6 2.8-8 5.8-16 9.1-23.9 6.5-15.7 13.9-31.1 22.3-45.9 4.2-7.4 8.7-14.6 13.5-21.6 4.8-7 9.9-13.8 15.3-20.4 5.4-6.5 11.2-12.7 17.3-18.6 6.2-5.8 12.7-11.2 19.5-16.2-6.6 5.3-12.8 11-18.7 17-5.8 6.1-11.2 12.6-16.3 19.3-5 6.7-9.7 13.7-14.1 20.8-4.3 7.2-8.4 14.5-12.3 22-7.6 15-14.1 30.4-19.8 46.2-2.8 7.9-5.4 15.8-7.8 23.9-2.3 8-4.5 16.2-6.2 24.1L483.9 573zM441.7 569.1c-.2-20.5-.9-41.2-1.9-61.8-1-20.6-2.4-41.2-4.4-61.7-1.9-20.5-4.4-41-7.9-61.4-1.8-10.2-3.8-20.3-6.3-30.3-2.5-10-5.5-19.9-9.6-29.4 4.4 9.3 7.8 19.2 10.8 29.1 2.9 9.9 5.3 20 7.5 30.2 4.3 20.3 7.6 40.7 10.4 61.3 2.8 20.5 5 41.1 6.9 61.8 1.8 20.7 3.4 41.3 4.4 62.1L441.7 569.1z"/><path fill="#899208" d="M470.6,711.7c0,0-67.6,19-74.3-37.4c0,0-68.3-30.4-39.3-87.6c0,0-7.4-112,73.5-82.4
						c0,0,22.5,8.2,36.1,25.2c0,0,70,0.5,68.5,65.6S511.3,661,511.3,661S526.4,706.8,470.6,711.7z"/><path fill="#c0473f" d="M486.7,969.1c-0.5,22.6-1.2,45.1-2.1,67.7c-0.5,11.3-1,22.6-1.7,33.8c-0.3,5.1-0.7,11.2-1.1,17.3
						c-0.4,6.2-0.9,12.5-1.3,18.1c-0.1,0.9-0.1,1.8-0.2,2.6c0,0.1,0,0.2,0,0.3c0,0.1,0,0.1,0,0.2h-40.4c0-0.1,0-0.1,0-0.2
						c0.8-5.7,2.5-13.8,4-21.9c0.5-2.3,0.9-4.5,1.3-6.7c0.9-4.8,1.7-9.3,2.1-12.8c1.4-11.1,2.7-22.2,4-33.3
						c2.5-22.2,4.8-44.4,6.8-66.7c4.1-44.5,7.2-89.1,8.7-133.8c0.7-22.3,1.1-44.7,0.8-67c-0.2-18-0.9-36-2.2-53.9
						c-0.3-4.3-0.7-8.7-1-13c-1.7-17.7-3.9-35.3-7.6-52.6c0,0,0,0,0,0c-1-4.4-2-8.8-3.2-13.2c-0.1-0.5-0.2-0.9-0.4-1.3c0,0,0,0,0,0
						c-2.8-10.3-6.3-20.4-11.2-29.8c-0.6-1.2-1.4-2.4-2-3.6c-0.7-1.2-1.4-2.4-2.2-3.5l-2.3-3.5l-2.6-3.2c-3.6-4.2-7.8-8-12.8-10.7
						c5.1,2.4,9.7,5.9,13.7,9.9l2.9,3.1l2.6,3.4c0.9,1.1,1.7,2.3,2.5,3.5c0.8,1.2,1.6,2.3,2.3,3.6c4.3,7,7.8,14.4,10.8,22
						c0,0,0,0,0,0c1.2,2.9,2.3,5.9,3.3,8.9c0.2,0.5,0.4,1.1,0.5,1.6c0,0,0,0,0,0c2.6,7.7,4.8,15.5,6.8,23.4c0,0,0,0,0,0
						c1.2,4.7,2.3,9.4,3.3,14.1c0,0,0,0,0,0c1.9,8.9,3.5,17.9,5,26.9c0.6,4.1,1.3,8.3,1.9,12.4v0c2.6,18.3,4.6,36.6,6.1,54.9
						c1.9,22.5,3.1,45.1,4,67.6C487.5,878.8,487.6,924,486.7,969.1z"/><path fill="#c0473f" d="M464.6 687c-.6-6.8-.6-13.3-.1-20 .5-6.6 1.4-13.2 3.1-19.6 1.6-6.4 4-12.6 7.4-18.3 1.7-2.8 3.6-5.5 5.8-8 2.2-2.4 4.7-4.6 7.3-6.5-2.5 2.1-4.8 4.4-6.8 7-2 2.6-3.6 5.3-5.1 8.2-2.8 5.8-4.7 12-5.8 18.3-1.2 6.3-1.6 12.7-1.6 19.1 0 6.4.5 12.9 1.5 19L464.6 687zM457.2 647.9c-1.8-3.9-4.1-7.9-6.4-11.7-2.4-3.8-5-7.4-7.9-10.8-2.9-3.4-6.2-6.5-9.9-9-3.7-2.4-8.1-4.2-12.7-4.1 4.6-.5 9.3.8 13.4 2.9 4.1 2.2 7.9 5 11.3 8.2 3.4 3.2 6.5 6.7 9.4 10.3 2.9 3.7 5.5 7.4 8 11.5L457.2 647.9z"/><path fill="#c0473f" d="M467.2 706.2c-2-11.1-3.8-22.1-5.6-33.2-1.7-11.1-3.4-22.2-4.8-33.4-1.4-11.1-2.7-22.3-3.5-33.5-.4-5.6-.6-11.2-.6-16.9.1-2.8.2-5.6.6-8.4.2-1.4.5-2.8 1-4.1.2-.7.6-1.3 1-1.9.5-.5 1-1 1.8-1.1-.7.1-1.3.6-1.7 1.1-.4.6-.7 1.2-.9 1.9-.4 1.3-.7 2.7-.8 4.1-.3 2.8-.3 5.6-.3 8.4.1 5.6.6 11.2 1.3 16.7 1.2 11.1 3 22.2 4.9 33.2 1.9 11 4 22 6.2 33 2.2 11 4.5 22 6.9 32.9L467.2 706.2zM429.5 388.5c0 0-4-31.5 24.2-51 0 0-26.4 7.9-26.5 39.3L429.5 388.5zM434.4 418.3c0 0-17.1-42.7-37.3-49.8 0 0 19.6 8.4 37.3 61.7V418.3zM524.3 481.4c0 0 44.6-35.2 85.3-27.1 0 0-41.1-10.1-79.3 16.2L524.3 481.4z"/><path fill="#f9dede" d="M473.2 816c-.1 1-5.4 102.9-8.5 163-1.6 30.3-6.8 69.1-11.7 100.4-1.7 10.9-3.3 20.9-4.8 29.3 0 .1 0 .2 0 .2 0 0 0 .1 0 .1 0 0 0 0 0 .1h-1c0 0 0 0 0 0 0 0 0-.1 0-.1 0 0 0-.1 0-.2 1.4-8.3 3.1-18.3 4.8-29.2 4.9-31.2 10.1-70.2 11.7-100.5 3.1-60 8.5-161.9 8.5-163 0-.3.2-.5.5-.5C473 815.5 473.2 815.7 473.2 816zM479.3 934.6c-2.7 38.4-10.6 104.8-15.8 147.2-1.3 10.2-2.4 19.1-3.2 25.8 0 .4-.1.8-.1 1.2 0 0 0 0 0 0 0 .1 0 .1 0 .2h-1c0-.1 0-.1 0-.2 0 0 0 0 0 0 .1-.4.1-.7.1-1.1.9-6.8 2-15.8 3.3-26.2 5.2-42.4 13.1-108.6 15.8-146.9 4.2-59.3 3-90.6 2.9-90.9 0-.3.2-.5.5-.5.3 0 .5.2.5.5C482.3 844 483.5 875.3 479.3 934.6z"/><g><polygon fill="#e5bebe" points="744.7 1084.6 743.2 1105.6 729.7 1105.7 728.7 1105.7 717.9 1105.9 716 1105.9 715 1105.9 480.3 1108.6 480.3 1108.6 460.1 1108.8 459.1 1108.8 457.3 1108.8 448.2 1108.9 447.2 1109 443.3 1109 445.3 1108.8 447.2 1108.7 448.3 1108.6 459.2 1107.7 460.3 1107.6 480.5 1106 480.5 1106 705.2 1087.8 714.9 1087.1 715.9 1087 728.2 1086 729.2 1085.9"/><path fill="#899208" d="M636.6 1010.9c0 0-28.2-34.8-10.8-58.6S671.2 990.3 636.6 1010.9zM515.3 916.2c0 0 12.6-57.2 46.7-16.7C562 899.5 525.2 958.6 515.3 916.2zM872 739.1c-.5.5-.7 1.1-.8 1.7s.2 1.3.7 1.7c6.8 7.1 15.7 10.7 26.4 10.7 7.8 0 15.5-1.9 21.6-4.1v0c5.3-1.9 9.5-4 11.7-5.2 3.2 15 11.7 67.9-18.9 94.1-36 30.7-53.2 34.5-85.4 28.5 0 0-.2.4-.6 1.2-.2-.2-.4-.4-.7-.5-.1 0-9.9-4.5-10.3-12.1-.4-6.9 6.8-14.9 20.8-23.3.6-.3 1-.9 1.1-1.5s.1-1.3-.3-1.9c-.3-.6-.9-1-1.5-1.1-.6-.2-1.3-.1-1.9.3-16 9.5-23.8 18.9-23.2 27.8.7 10.6 12.8 16 13.3 16.3.1.1.3.1.4.1-8.3 14.7-34.9 52.8-75.2 28.3h0c-3-1.8-5.8-3.4-8.4-4.9-.8-.4-1.5-.9-2.2-1.3-3.3-1.8-6.2-3.3-8.9-4.6-.6-.3-1.2-.6-1.8-.8-4.7-2.2-8.5-3.6-11.4-4.4-.7-.2-1.4-.4-2-.5-2.1-.4-3.8-.5-5-.4-.1 0-.2 0-.3 0-.8.1-1.4.3-1.9.6-.1.1-.3.1-.4.2-.1.1-.2.1-.3.2-.1.1-.1.1-.2.2 0 0-.1.1-.1.1-.1.1-.1.1-.2.2-.1.1-.1.1-.2.2-.4.5-.6 1.1-.7 1.6v0c0 0 0 0 0 0-.2 1.2.1 2.3.1 2.3s-30.3 30.7-60.3 5.3c-19.1-16.2-16.9-28.2-12.8-34.8 1.8-.4 11.2-2.8 19.2-12.1 1-1.1 1.9-2.3 2.8-3.6.8-1.1.5-2.7-.6-3.4-1.1-.8-2.6-.5-3.4.6-7.9 11.4-19 13.8-19.1 13.8-.4.1-.7.2-1 .5-22.1 3.5-86.1 8.2-103.2-49.1-1-3.4-1.8-6.9-2.5-10.7 0 0-2.8-10.7-1.5-24.5 0-.4.1-.8.1-1.2 0-.2 0-.4.1-.6.1-.7.2-1.5.3-2.2.1-.5.2-1.1.3-1.6.1-.4.1-.7.2-1.1.1-.6.2-1.2.4-1.9.1-.3.1-.5.2-.8.1-.4.2-.8.3-1.2.1-.5.2-.9.4-1.4.3-.9.5-1.8.8-2.8.1-.5.3-.9.5-1.4.1-.4.3-.7.4-1 .1-.3.3-.7.4-1 .1-.2.2-.5.3-.7.1-.3.2-.5.3-.8.1-.2.1-.3.2-.5.1-.3.3-.7.5-1 .1-.3.3-.6.5-.9.1-.1.1-.3.2-.4.1-.3.3-.5.4-.8.2-.3.3-.6.5-.9.1-.3.3-.5.4-.8.4-.7.8-1.3 1.2-1.9.2-.4.5-.8.8-1.2.2-.4.5-.7.7-1 .2-.2.3-.5.5-.7.1-.2.3-.4.4-.6.4-.6.9-1.2 1.3-1.7.5-.6.9-1.2 1.4-1.7.2-.3.5-.6.8-.8.4-.4.8-.8 1.2-1.2.3-.3.5-.6.8-.8.3-.3.7-.6 1-.9.3-.3.6-.6.9-.8.2-.2.4-.4.6-.5.2-.2.4-.3.6-.5 1.4-1.2 3-2.4 4.6-3.5.4-.3.8-.6 1.2-.8.4-.3.9-.6 1.3-.8 0 0 0 0 0 0 .4-.3.9-.5 1.3-.8.5-.3.9-.5 1.4-.8.4-.2.8-.5 1.2-.7.5-.3 1.1-.6 1.7-.9.2-.1.4-.2.5-.3.2-.1.4-.2.5-.3.4-.2.7-.4 1.1-.5.4-.2.7-.3 1.1-.5.4-.2.8-.4 1.2-.5 6.6 5.3 19.6 14.3 33.6 15.7l.3 0c1.3 0 2.3-.9 2.4-2.2.1-1.3-.8-2.6-2.2-2.7-11.3-1.2-22.1-7.9-28.7-12.8.1 0 .1 0 .1-.1 0 0-.8-.4-2-1.4-.1-.1-.1-.1-.2-.2-.1-.1-.1-.1-.2-.2 0 0 0 0 0 0-.3-.2-.6-.5-.9-.7-.1-.1-.3-.2-.4-.4-.1-.1-.3-.3-.5-.4-.2-.1-.3-.3-.5-.4 0 0-.1-.1-.1-.1v0c-1.7-1.6-3.8-3.7-5.8-6.3-.2-.3-.5-.6-.7-1-.3-.4-.6-.9-.9-1.3-.2-.3-.4-.6-.6-.9-.2-.4-.5-.8-.7-1.2-.2-.3-.4-.7-.6-1-.2-.3-.4-.7-.6-1-.4-.7-.7-1.4-1.1-2.1-.2-.3-.3-.7-.5-1-.1-.2-.2-.3-.2-.5-.1-.2-.2-.4-.2-.5-.1-.3-.2-.6-.4-.9-.1-.3-.2-.6-.4-.9-.1-.4-.3-.7-.4-1.1-.1-.4-.2-.7-.4-1.1-.1-.4-.2-.7-.4-1.1-.1-.2-.1-.5-.2-.8-.1-.5-.3-1-.4-1.5-.1-.2-.1-.4-.1-.6-.1-.5-.2-1-.3-1.5-.2-1-.4-2.1-.6-3.2-.1-.4-.1-.9-.2-1.4 0-.3-.1-.6-.1-.8 0-.4-.1-.7-.1-1.1-.1-.9-.1-1.7-.2-2.6 0-.4 0-.9 0-1.4 0-1.1 0-2.2 0-3.3 0-.7.1-1.3.1-2 .1-1 .1-2.1.3-3.2 0-.4.1-.8.1-1.2.1-.4.1-.8.2-1.3.1-.7.2-1.4.3-2.2.1-.4.1-.8.2-1.2.1-.5.2-1 .3-1.5 0-.2.1-.4.1-.6.1-.4.2-.8.2-1.1.1-.5.2-1 .4-1.5.1-.4.2-.7.3-1.1 0 0 0 0 0-.1.1-.3.1-.5.2-.8.1-.5.3-.9.4-1.4.2-.6.3-1.2.5-1.8.4-1.2.8-2.5 1.2-3.7.2-.6.4-1.1.6-1.7.2-.7.5-1.3.7-2 .2-.4.3-.8.5-1.3.2-.4.3-.8.5-1.3 0-.1 0-.1.1-.2.2-.4.4-.9.6-1.4.5-1.2 1.1-2.4 1.6-3.7.2-.4.4-.9.6-1.3 1.4-3.1 3.1-6.2 4.9-9.5.3-.5.6-1 .8-1.5.2-.3.3-.6.5-.9.2-.3.4-.6.5-.9.4-.6.7-1.2 1.1-1.8.9-1.5 1.9-3.1 2.9-4.7.5-.8 1-1.6 1.5-2.4 38.6-58.5 75.3-57.2 101-44.2 4.3 2.2 8.2 4.6 11.8 7.2h0c.1.4.4.8.7 1 .4.3 35.4 30.8 33.9 62.5-.1 1.4 1 2.5 2.3 2.6l.2 0c1.3 0 2.4-1 2.5-2.3 1.2-25.8-19.5-50.4-29.9-61 2.6-2.7 7.3-7.1 13.7-11.8C724 554.1 763 535.1 812.2 557c0 0 0 0 0 0 0 0 0 0 0 0 .1.1.5.2 1.1.6.1.1.3.2.5.3 1.8 1 5 3 8.8 6.2.4.3.8.7 1.2 1 .1 0 .1.1.1.1.3.2.5.4.8.7.3.2.5.5.8.7.3.2.5.5.8.7 0 0 .1 0 .1.1.5.5 1 1 1.5 1.5.3.3.5.5.8.8.3.3.5.6.8.9 1.1 1.1 2.1 2.3 3.2 3.5.2.3.4.5.7.8 1.2 1.5 2.4 3 3.6 4.7.3.4.5.8.8 1.2 1.2 1.8 2.4 3.7 3.5 5.8.2.3.3.6.5.9.3.6.7 1.2 1 1.9.2.4.5.9.7 1.4.2.4.4.7.5 1.1.2.4.4.8.6 1.3.1.2.2.4.3.7.1.2.2.4.3.7.5 1.1.9 2.3 1.4 3.5.2.7.5 1.4.7 2.1.4 1.2.8 2.4 1.1 3.7.1.2.1.4.2.6.1.3.2.6.2.9.1.4.2.9.3 1.3 0 .1 0 .1 0 .2-4.5.9-16.8 3.7-28.8 9.1-11.5 5.2-22.7 12.8-26.6 23.4-.2.6-.2 1.3.1 1.9.3.6.8 1 1.4 1.3.3.1.6.2.9.2 1 0 1.9-.6 2.3-1.6 3.6-9.7 14.7-16.7 25.9-21.4 11-4.7 22-7.2 26-8 .1.6.2 1.2.3 1.8 0 0 17.7-6.4 36.2-4 11.2 1.5 22.6 6.2 30.5 17.5 4.6 6.6 8.9 13.6 12.6 20.8 13.1 25.1 19.2 52 9.8 72.6-3.8 8.3-6 13.4-7.4 16.4-.4.9-.7 1.5-1 2.1v0c-.2.1-.4.1-.6.3-.1.1-4.6 2.7-11.2 5.2-12 4.6-31.2 8.6-44.1-4.8-.4-.5-1.1-.7-1.7-.8C873.1 738.4 872.5 738.7 872 739.1z"/><path fill="#679208" d="M931.6,744c3.2,15,11.7,67.9-18.9,94.1c-36,30.7-53.2,34.5-85.4,28.5c0,0-0.2,0.4-0.6,1.2
						c-0.2-0.2-0.4-0.4-0.7-0.5c-0.1,0-9.9-4.5-10.3-12.1c-0.4-6.9,6.8-14.9,20.8-23.3c0.6-0.3,1-0.9,1.1-1.5s0.1-1.3-0.3-1.9
						c-0.3-0.6-0.9-1-1.5-1.1c-0.6-0.2-1.3-0.1-1.9,0.3c-16,9.5-23.8,18.9-23.2,27.8c0.7,10.6,12.8,16,13.3,16.3
						c0.1,0.1,0.3,0.1,0.4,0.1c-8.3,14.7-34.9,52.8-75.2,28.3h0c-37.5-22.7-43.3-17.4-43.9-13.6c0,0,0,0,0,0
						c-0.2,1.2,0.1,2.3,0.1,2.3s-30.3,30.7-60.3,5.3c-19.1-16.2-16.9-28.2-12.8-34.8c1.8-0.4,11.2-2.8,19.2-12.1
						c1.3,4.6,10.3,29.7,50.7,10.5c2.5-1.2,5.1-2.5,7.8-4c16.5-9.2,25.3-18.1,31.7-25.7c9.6-11.5,13.6-20.1,29.4-22.4
						c4.4-0.7,9.8-0.8,16.5-0.4c3,0.2,6.3,0.5,9.8,0.9c58.6,6.7,120.1,10.2,123.5-26.3c0.7-7.2-0.1-18-1-30.6v0
						C925.2,747.2,929.4,745.1,931.6,744z"/><path fill="#a5a816" d="M631.4 628.9c42.3 83.9-14.2 118.1-65.8 121-26.9 1.5-36.1 29.6-38.7 56.2-1-3.4-1.8-6.9-2.5-10.7 0 0-2.8-10.7-1.5-24.5 0-.4.1-.8.1-1.2 0-.2 0-.4.1-.6.1-.7.2-1.5.3-2.2.1-.5.2-1.1.3-1.6.1-.4.1-.7.2-1.1.1-.6.2-1.2.4-1.9.1-.3.1-.5.2-.8.1-.4.2-.8.3-1.2.1-.5.2-.9.4-1.4.3-.9.5-1.8.8-2.8.1-.5.3-.9.5-1.4.1-.4.3-.7.4-1 .1-.3.3-.7.4-1 .1-.2.2-.5.3-.7.1-.3.2-.5.3-.8.1-.2.1-.3.2-.5.1-.3.3-.7.5-1 .1-.3.3-.6.5-.9.1-.1.1-.3.2-.4.1-.3.3-.5.4-.8.2-.3.3-.6.5-.9.1-.3.3-.5.4-.8.4-.7.8-1.3 1.2-1.9.2-.4.5-.8.8-1.2.2-.4.5-.7.7-1 .2-.2.3-.5.5-.7.1-.2.3-.4.4-.6.4-.6.9-1.2 1.3-1.7.5-.6.9-1.2 1.4-1.7.2-.3.5-.6.8-.8.4-.4.8-.8 1.2-1.2.3-.3.5-.6.8-.8.3-.3.7-.6 1-.9.3-.3.6-.6.9-.8.2-.2.4-.4.6-.5.2-.2.4-.3.6-.5 1.4-1.2 3-2.4 4.6-3.5.4-.3.8-.6 1.2-.8.4-.3.9-.6 1.3-.8 0 0 0 0 0 0 .4-.3.9-.5 1.3-.8.5-.3.9-.5 1.4-.8.4-.2.8-.5 1.2-.7.5-.3 1.1-.6 1.7-.9.2-.1.4-.2.5-.3.2-.1.4-.2.5-.3.4-.2.7-.4 1.1-.5.4-.2.7-.3 1.1-.5.4-.2.8-.4 1.2-.5 6.6 5.3 19.6 14.3 33.6 15.7l.3 0c1.3 0 2.3-.9 2.4-2.2.1-1.3-.8-2.6-2.2-2.7-11.3-1.2-22.1-7.9-28.7-12.8.1 0 .1 0 .1-.1 0 0-.8-.4-2-1.4-.1-.1-.1-.1-.2-.2-.1-.1-.2-.1-.2-.2-.3-.2-.6-.5-.9-.7-.1-.1-.3-.2-.4-.4-.1-.1-.3-.3-.5-.4-.2-.1-.3-.3-.5-.4 0 0-.1-.1-.1-.1-1.7-1.6-3.8-3.7-5.8-6.3-.2-.3-.5-.6-.7-1-.3-.4-.6-.9-.9-1.3-.2-.3-.4-.6-.6-.9-.2-.4-.5-.8-.7-1.2-.2-.3-.4-.7-.6-1-.2-.3-.4-.7-.6-1-.4-.7-.7-1.4-1.1-2.1-.2-.3-.3-.7-.5-1-.1-.2-.2-.3-.2-.5-.1-.2-.2-.4-.2-.5-.1-.3-.2-.6-.4-.9-.1-.3-.2-.6-.4-.9-.1-.4-.3-.7-.4-1.1-.1-.4-.2-.7-.4-1.1-.1-.4-.2-.7-.4-1.1-.1-.2-.1-.5-.2-.8-.1-.5-.3-1-.4-1.5-.1-.2-.1-.4-.1-.6-.1-.5-.2-1-.3-1.5-.2-1-.4-2.1-.6-3.2-.1-.4-.1-.9-.2-1.4 0-.3-.1-.6-.1-.8 0-.4-.1-.7-.1-1.1-.1-.9-.1-1.7-.2-2.6 0-.4 0-.9 0-1.4 0-1.1 0-2.2 0-3.3 0-.7.1-1.3.1-2 .1-1 .1-2.1.3-3.2 0-.4.1-.8.1-1.2.1-.4.1-.8.2-1.3.1-.7.2-1.4.3-2.2.1-.4.1-.8.2-1.2.1-.5.2-1 .3-1.5 0-.2.1-.4.1-.6.1-.4.2-.8.2-1.1.1-.5.2-1 .4-1.5.1-.4.2-.7.3-1.1 0 0 0 0 0-.1.1-.3.1-.5.2-.8.1-.5.3-.9.4-1.4.2-.6.3-1.2.5-1.8.4-1.2.8-2.5 1.2-3.7.2-.6.4-1.1.6-1.7.2-.7.5-1.3.7-2 .2-.4.3-.8.5-1.3.2-.4.3-.8.5-1.3 0-.1 0-.1.1-.2.2-.4.4-.9.6-1.4.5-1.2 1.1-2.4 1.6-3.7.2-.4.4-.9.6-1.3 1.4-3.1 3.1-6.2 4.9-9.5.3-.5.6-1 .8-1.5.2-.3.3-.6.5-.9.2-.3.4-.6.5-.9.4-.6.7-1.2 1.1-1.8.9-1.5 1.9-3.1 2.9-4.7.5-.8 1-1.6 1.5-2.4 38.6-58.5 75.3-57.2 101-44.2C635.1 576.5 613.3 592.9 631.4 628.9zM849.1 606.6c-4.5.9-16.8 3.7-28.8 9.1-9.3-9.2-18.4-18.5-27.1-25.4-12.4-9.9-52.1-19.7-89.8-20.9C724 554.1 763 535.1 812.2 557c0 0 0 0 0 0 0 0 0 0 0 0 .1.1.5.2 1.1.6.1.1.3.2.5.3 1.8 1 5 3 8.8 6.2.4.3.8.7 1.2 1 .1 0 .1.1.1.1.3.2.5.4.8.7.3.2.5.5.8.7.3.2.5.5.8.7 0 0 .1 0 .1.1.5.5 1 1 1.5 1.5.3.3.5.5.8.8.3.3.5.6.8.9 1.1 1.1 2.1 2.3 3.2 3.5.2.3.4.5.7.8 1.2 1.5 2.4 3 3.6 4.7.3.4.5.8.8 1.2 1.2 1.8 2.4 3.7 3.5 5.8.2.3.3.6.5.9.3.6.7 1.2 1 1.9.2.4.5.9.7 1.4.2.4.4.7.5 1.1.2.4.4.8.6 1.3.1.2.2.4.3.7.1.2.2.4.3.7.5 1.1.9 2.3 1.4 3.5.2.7.5 1.4.7 2.1.4 1.2.8 2.4 1.1 3.7.1.2.1.4.2.6.1.3.2.6.2.9.1.4.2.9.3 1.3C849.1 606.5 849.1 606.5 849.1 606.6z"/><path fill="#899208" d="M886.1,644.5c-20.4,11.7-41.7-5.4-62-25.1c11-4.7,22-7.2,26-8c0.1,0.6,0.2,1.2,0.3,1.8
						c0,0,17.7-6.4,36.2-4C892.3,627,894,640,886.1,644.5z"/><path fill="#c0473f" d="M865.3 729.6c0 0-.2 0-.6.1-5.1 1-40.4 9.8-71 64.3-2.1 3.8-4.2 7.5-6.2 11.2-21.2 38.9-33.1 67.8-38.4 95-1.9 9.5-2.9 18.7-3.3 28.1-1.7 39.1-3.9 29.2 0 47.4 3.8 18.2-5.5 26.4-2.8 42.9 2.8 16.5 1.7 27.5 2.8 35.2 1.1 7.7 0 51.9 0 51.9h-41.3c0 0 .3-6.7.6-18 1.4-40.9 4.1-141.7.1-201.3-.8-11.3-1.8-21.1-3.1-28.8-1.3-7.4-2.8-12.8-4.7-15.5-16.9-23.9-32.4-52.1-60.6-52.1h-10.6c0 0 10.5-24.3 16.5-24.3 0 0 .1.1.2.2 2.3 2.4 26.4 25.4 33.1-7.5.1-.5.2-1 .3-1.5v0h17.1c0 0-.4.3-.9.9-4.3 4.3-21.4 23.3-11.7 39.3 11 18.2 39.6 28.1 45.2 7.2 4.7-17.7 6.2-34.3 6.5-38.9.1-.8.1-1.3.1-1.3s9.9-1.1 21.5 5.5c0 0-.3.3-.7.8-3.6 4.3-19.1 25.1-11.7 57.5.3 1.1.5 2.3.9 3.4 0 0 8.3 17.1 22.6-13.8 2-4.3 4-8.3 6-12.1 12.4-23.5 23.2-38.9 7.6-55.8-.1-.2-.3-.3-.4-.4 0 0 1.1-18.5 11-19.2.2 0 .4 0 .6 0 0 0 6.6 20.9 16 17.1 9.1-3.8 13-13.3 10.1-22.5-.1-.2-.1-.4-.2-.6 0 0 7.2-5 12.1-3.8 0 0 0 .3 0 .7.1 3.8 1.9 22 24 0 .3-.3.5-.5.8-.8C852.6 720.1 865.3 721.4 865.3 729.6zM673.5 713.2l-10.9-36.4c0 0 2.3-3.6 9.3-3.6l15.2 42.7C687 715.8 679.4 717.1 673.5 713.2zM747.9 713.2l6-36.1c0 0 4-1.4 10.6 3.3l-8.3 38.1C756.2 718.5 751.5 719.5 747.9 713.2z"/><path fill="#8d473f" d="M778.6 757.3c-.3 0-.6-.2-.7-.5-.1-.2-5.4-23.9 15-29.5.4-.1.8.1.9.5.1.4-.1.8-.5.9-19.1 5.2-14.1 27.6-14 27.8.1.4-.1.8-.5.8C778.8 757.3 778.7 757.3 778.6 757.3zM813.6 726.2c-.2 0-.4-.1-.6-.3-.2-.3-.2-.7.1-1 .4-.3 9.9-7.8 17.8-4.8.4.1.5.5.4.9-.1.4-.5.5-.9.4-7.1-2.7-16.3 4.5-16.4 4.6C813.9 726.2 813.8 726.2 813.6 726.2zM865.3 734c0 0-.1 0-.1 0-.4-.1-.6-.4-.6-.8.5-3.3-.2-6-2-8-4.1-4.6-12.9-4.4-13-4.4-.4 0-.7-.3-.7-.7 0-.4.3-.7.7-.7.4 0 9.5-.3 14.1 4.9 2.1 2.3 2.9 5.4 2.3 9.1C865.9 733.7 865.6 734 865.3 734zM758.4 774.5c-.2 0-.4-.1-.5-.2-15.1-14.8-35.2-6.6-35.4-6.5-.4.1-.8 0-.9-.4-.2-.4 0-.8.4-.9.2-.1 21.2-8.7 36.9 6.8.3.3.3.7 0 1C758.7 774.5 758.6 774.5 758.4 774.5zM670.6 760.1c-.2 0-.5-.1-.6-.3-.2-.3-.1-.8.2-1 .2-.1 5.5-3.5 27.9-1.8.4 0 .7.4.7.8 0 .4-.4.7-.8.7-21.7-1.6-27 1.6-27.1 1.6C670.8 760.1 670.7 760.1 670.6 760.1zM624.4 796.3c-.1 0-.1 0-.2 0-.4-.1-.6-.5-.5-.9.4-1.3 9.8-32.7 25-32.1.4 0 .7.3.7.7 0 .4-.3.7-.7.7-.1 0-.2 0-.3 0-13.9 0-23.2 30.8-23.2 31.1C625 796.1 624.7 796.3 624.4 796.3zM684.1 716.7c-10.2 0-15.4-5.2-15.6-5.5-.3-.3-.3-.7 0-1 .3-.3.7-.3 1 0 .1.1 7.7 7.7 22.4 4.1.4-.1.8.1.9.5.1.4-.1.8-.5.9C689.2 716.4 686.5 716.7 684.1 716.7zM659.8 682.2C659.8 682.2 659.8 682.2 659.8 682.2c-.4 0-.7-.3-.7-.7 0-.4.6-9.6 17.4-9.6.1 0 .2 0 .4 0 .4 0 .7.3.7.7 0 .4-.3.7-.7.7-.1 0-.2 0-.4 0-15.5 0-16 8.2-16 8.3C660.5 681.9 660.1 682.2 659.8 682.2zM759.5 720.1c-12 0-15.1-11.5-15.1-11.6-.1-.4.1-.8.5-.9.4-.1.8.1.9.5.1.4 2.9 10.9 14.4 10.6.4 0 .7.3.7.7 0 .4-.3.7-.7.7C759.9 720.1 759.7 720.1 759.5 720.1zM769.6 684.2c-.1 0-.3 0-.4-.1-14.4-11-22.8-5.4-22.9-5.3-.3.2-.8.1-1-.2-.2-.3-.1-.8.2-1 .4-.3 9.4-6.3 24.6 5.4.3.2.4.7.1 1C770 684.1 769.8 684.2 769.6 684.2z"/><path fill="#899208" d="M588.7 1013.7c0 0 20.8-11.9 18.9 10.1-1.9 21.9-27.2 25.4-26.3 38.1C581.2 1061.9 563.2 1038.3 588.7 1013.7zM555.6 938c0 0-10.6 35.2 12.4 33.8 23-1.4 18.3-16.3 12.2-21C574.1 946.1 556 959 555.6 938z"/><path fill="#f9dede" d="M716.1 996.7c-.5 16.5-.3 61.1-.2 90.3 0 7.6.1 14.1.1 18.9 0 0 0 0 0 0l-1 0c0 0 0 0 0 0 0-4.7-.1-11.3-.1-18.8-.2-29.2-.3-73.8.2-90.4.5-17 .7-74.5-1.1-113.1-.6-13.1-1.5-24.1-2.6-30.5-.4-2.4-.9-4.1-1.4-5.1-5.9-11.7-17.7-21.3-17.8-21.4-.2-.2-.3-.5-.1-.7.2-.2.5-.3.7-.1.1.1 12.1 9.8 18.1 21.7.5 1 1 2.8 1.4 5.1 1.2 6.5 2.1 17.8 2.7 31.3 0 0 0 0 0 0C716.8 922.5 716.6 979.7 716.1 996.7zM729.7 1105.7v.1h-1v-.1l-.5-19.8-3.4-139c0-.3.2-.5.5-.5.3 0 .5.2.5.5l3.4 138.9L729.7 1105.7zM721.5 917.7c-.3 0-.5-.2-.5-.5-.1-3-2.3-72.7 0-79.4.1-.3.4-.4.7-.3.3.1.4.4.3.7-2.2 6.6 0 78.3 0 79.1C722 917.5 721.8 917.7 721.5 917.7 721.5 917.7 721.5 917.7 721.5 917.7z"/></g><g><polygon fill="#e5bebe" points="1469 1076.8 1467.6 1097.7 1220.6 1097.7 1221 1097.7 1233.3 1096.6 1234.3 1096.6 1245.2 1095.6 1249.3 1095.3 1433.1 1079.8 1444.9 1078.8 1445.9 1078.7 1458.1 1077.7 1459.2 1077.6"/><path fill="#899208" d="M1313.5 754.2c0 0 2.8 23.8-14.6 29.5s-29.1 0-29.1 0S1291.7 734.7 1313.5 754.2zM1408.4 644.6c0 0-19.5-32.7 0-42.5 19.5-9.8 24-12.1 24.8-18.3.9-6.3 20.6 17.3 10.7 36.6C1434.1 639.7 1423.2 641.6 1408.4 644.6zM1376.5 451.9c0 0-27.6-23.2-13.2-38 14.4-14.8 17.7-18.2 16.5-24.1s23.8 9.1 21 29.4C1398 439.6 1388.7 444.6 1376.5 451.9zM1275.5 898.8c0 0-20.4-34.2 0-44.4 20.4-10.2 25-12.6 25.9-19.1.9-6.5 21.5 18.1 11.2 38.3C1302.3 893.8 1290.9 895.7 1275.5 898.8zM1540 533.1c0 0-27-33.3-10.4-56.1C1546.3 454.2 1573.2 513.4 1540 533.1zM1530.3 922.2c0 0-27-33.3-10.4-56.1S1563.4 902.5 1530.3 922.2zM1597.1 540.6c0 0-9.5-38.9 36.7-51.8 0 0 3.9 30.2-10.7 38.2C1608.6 535 1597.1 540.6 1597.1 540.6zM1568.6 412.2c0 0 16.1 25.7 49.9-16.7 0 0-11.2-14.6-28.4-9.4S1568.6 412.2 1568.6 412.2zM1486.4 347.2c0 0 2.3-14.5 27.7-24 25.4-9.5 25.9-29.9 25.9-29.9s6.3 25.9-11 40.1C1511.8 347.6 1497.5 362.9 1486.4 347.2zM1451.2 363.4c0 0 11.9-25.6-15.2-46s-26.9-15.4-31.6-27.1c0 0-6.7 22.8 11.5 39.4C1434.1 346.3 1451.2 363.4 1451.2 363.4zM1431.4 398.4c0 0-.3-29.2-20.7-31.7-20.3-2.5-24-12.8-24-12.8s4.7 25.2 22.4 36.3C1426.7 401.2 1431.4 398.4 1431.4 398.4zM1698.2 478.2c0 0 12-54.8 44.7-16C1742.9 462.2 1707.8 518.8 1698.2 478.2zM1335.8 955c0 0 12-54.8 44.7-16C1380.5 939 1345.3 995.6 1335.8 955zM1688.7 591c0 0 16.1-46 54.3-7.3C1742.9 583.8 1693 631.1 1688.7 591zM1596.3 698.4c0 0-9.9-13 12.3-30.9 22.2-17.9 33.9-15.4 33.9-15.4S1633.2 686.2 1596.3 698.4zM1593.4 754.3c0 0-10.7-32.6 10.9-32 21.6.6 23.4-1.2 33.9-4 10.5-2.8 8 32.2-10.5 36C1609.2 758.1 1593.4 754.3 1593.4 754.3zM1420.3 481.3c0 0-12.9 38.8 3 48.1C1439.1 538.7 1420.3 481.3 1420.3 481.3zM1344.4 823.1c0 0-13.4 40.5 3.1 50.2S1344.4 823.1 1344.4 823.1z"/><path fill="#c0473f" d="M1593.4,579.8c0,0-1.6,5.8-6.6,15.7c-0.6,1.3-1.3,2.6-2.1,4c-2.3,4.3-5.1,9.1-8.6,14.4
						c-1.6,2.5-3.4,5.1-5.4,7.9c-16.9,23.5-45.8,69.8-53,86.9c-0.5,1.2-0.9,2.3-1.2,3.1c-0.4,1.4-1,2.9-1.6,4.6
						c-5.4,15.3-16.1,41.9-2,44.4c2.3,0.4,4.7,0.7,7.3,0.8c15.3,0.9,34.6-2,40.6-2.5c3-0.3-6.6,2.3-19.3,5.8
						c-17,4.7-39.5,11-45.1,14.4c-9.8,5.9-24.8,35.4-24.4,62.5c0.4,27.1-1.2,69.1,2,110.8c3.1,41.6-2.4,102.5-2.4,120.6
						c0,18.1,1.2,25.2,1.2,25.2h-40.6c0,0,0-0.2,0-0.7c0.1-2,0.5-8.3,0.9-17.9c2.9-60.7,10.5-250.6-8-274.1
						c-14.8-18.8-28.6-44.7-66.9-77.9c-2.9-2.5-5.9-5.1-9.1-7.7c-9.2-7.5-19.6-15.3-31.6-23.5c-10.3-7-21.7-14.3-34.4-21.8
						c-0.7-0.4-1.5-0.9-2.2-1.3c-20-11.8-32.6-19.3-39.8-23.7c-2-1.3-3.6-2.3-4.9-3.1c-5.1-3.3-3.8-2.8,0.5-0.7
						c1.3,0.7,3,1.5,4.8,2.5c11.4,6,30.1,16.3,30.1,16.3s6.7,3.2,15.5,7.6c10.3,5.1,23.5,12,32.5,17.6c0.9,0.5,1.7,1,2.4,1.5
						c14.5,9.4,28.9,6.3,31.9-10.4c2.8-15.4,18.7-55.8,9.2-100.6c-0.8-3.7-1.7-7.3-2.8-11c-2.3-7.7-5.5-14.9-9.1-21.7
						c-4.1-7.6-8.7-14.5-13.6-20.8c-15.1-19.4-31.9-32.3-37.6-36.4c6,4.2,24,17.6,41.2,36.4c5,5.5,9.9,11.4,14.4,17.7
						c2.2,3.1,4.4,6.3,6.4,9.5c0,0,16,26.9,7.1-16.8c0-0.1,0-0.2-0.1-0.2c-2.2-10.6-2.5-22.8-1.9-35.3c0.7-12,2.3-24.3,4.2-35.6
						c1-5.8,2.1-11.3,3.2-16.3c3.5-16.3,6.9-28,7.4-29.7c-0.4,1.6-2.7,12.5-4.6,30.8c-0.6,5.9-1.2,12.6-1.6,20
						c-0.3,5.1-0.5,10.5-0.7,16.3c-0.3,11.5-0.2,24.2,0.5,38c0.2,3.3,0.3,6.4,0.4,9.5c0.5,13.6,0.6,25.2,0.4,35.1
						c-0.6,35.4-4.4,50.7-4.4,66.3c0,4.8,0.5,14.1,1.6,25.2c0.3,3.2,0.7,6.6,1.2,10.1c4.9,36.8,16.9,84.7,42.2,72.8
						c36-16.9,31-32.6,26-63.3c-5-30.7,16-38.7,21-56.8c5-18,1-42.1-9-74.1c-10-32-12-44.1-5-80.1c2.3-11.9,4.3-19.6,6-25.6
						c1.5-5.3,2.7-9.3,3.6-13.7c0.9-4.3,1.6-9.1,2.1-16c0.1-2.3,0.3-4.9,0.4-7.8c0,0,4.2,6.2,3.6,26.9c-0.4,12.7-2.6,30.8-8.6,56.3
						c0,0-3,48.1,15,52.1c0,0,13.9,5.1,15.9-15.3c1.5-15.2,5.6-22,7.5-27c0.7-1.7,1.1-3.2,1.1-4.8c0-3.2,2-14.9,3-28.3
						c0.5-6.2,0.7-12.8,0.4-19c-0.3-6.9-1.3-13.5-3.4-18.7c-0.9-2.3-1.7-4.4-2.4-6.4c-1.8-5.2-3.2-9.5-4.3-13.5
						c-2.5-8.2-4.3-14.9-8.9-23.2c0.9,1.5,7.8,13.7,17.2,32c3.4,6.7,5.1,21,5.6,37.6c0,0.8,0,1.6,0.1,2.4c0.1,4.4,0.1,9,0.1,13.6
						c-0.2,31.8-3.3,66.2-5.3,73.2c-3.5,12.2-10.4,19.7-17.4,42.5c-7.1,22.8-1.4,42.7-3.8,53.3c-2.4,10.6-18.2,43.4-19,54.4
						c-0.8,11,5.1,41.5,23.2,27.4c18.1-14.1,29.5-25.9,34.6-41.6c5.1-15.7,14.8-29.1,19.9-36.6c5.1-7.5-10.5-32.6-4.6-40.4
						c3.3-4.4,7.2-8.8,9.9-15.1c2.1-4.9,3.5-10.9,3.5-19.1c0-3.4,0-5,0-5.3c0.1,0.7,0.5,13.6,3,18c0.1,0.2,0.2,0.3,0.3,0.5
						c0.8,1.1,1.8,1.4,3,0.5c2.9-2.3,1.1,2.2-1.7,8.5c0,0,0,0,0,0c-4,8.9-9.9,21.6-6.9,24.1c5.1,4.3,10.2,8.7,20.4-7.5
						c8.6-13.6,24.2-24.9,28.9-28.2l0,0C1592.9,580.1,1593.4,579.8,1593.4,579.8z"/><path fill="#c0473f" d="M1364.9 684.4c.5-2.5 1-4.6 1.7-6.9.7-2.2 1.5-4.4 2.4-6.6 1.8-4.3 4-8.4 6.8-12.2 2.8-3.8 6.3-7.2 10.3-9.7 2.1-1.2 4.2-2.2 6.5-3 2.3-.7 4.6-1.2 6.9-1.3l3.2-.3c1-.2 2.1-.3 3.1-.6 2.1-.5 4.1-1.2 5.9-2.2 3.8-1.9 7.2-4.8 10-8 2.8-3.3 5.2-7.1 7.1-11.1 1.9-4 3.4-8.2 4.4-12.5-.7 4.4-2 8.7-3.6 12.9-1.7 4.2-3.8 8.2-6.5 11.8-2.7 3.6-6.1 6.9-10.1 9.2-3.9 2.4-8.6 3.8-13.1 4.3-2.1.3-4.1.9-6 1.6-1.9.8-3.7 1.8-5.4 2.9-3.4 2.4-6.2 5.5-8.5 9-2.3 3.5-4 7.4-5.4 11.4-.7 2-1.3 4.1-1.8 6.1-.5 2-.9 4.2-1.1 6.1l0 .1c-.2 1.9-1.9 3.2-3.7 3s-3.2-1.9-3-3.7C1364.9 684.5 1364.9 684.5 1364.9 684.4zM1497.3 719.1c2.8-1.9 5.4-3.4 8.2-4.9 2.8-1.5 5.7-2.9 8.6-4.1 5.9-2.4 12.2-4.2 18.8-4.5 1.7 0 3.3 0 5 .2.8.1 1.7.3 2.5.4l2.2.5c2.9.6 5.9 1 8.9 1.3 6 .6 12 .7 18 .1 5.9-.6 11.8-2 17.2-4.6 2.7-1.3 5.2-2.8 7.5-4.8 2.3-1.9 4.2-4.2 6.1-6.6 7.8-9.5 15.4-19.1 22.8-29-6.9 10.2-14 20.2-21.3 30.1-.9 1.2-1.8 2.5-2.8 3.7-1 1.2-2.1 2.4-3.2 3.5-2.3 2.2-5 4-7.8 5.5-5.6 3-11.8 4.8-18 5.8-6.2 1-12.5 1.2-18.8.9-3.1-.2-6.3-.5-9.4-.9l-2.3-.4c-.7-.1-1.4-.2-2.1-.2-1.4-.1-2.8-.1-4.2 0-5.7.4-11.3 2.3-16.7 4.7-2.7 1.2-5.3 2.6-7.9 4.1-2.6 1.5-5.1 3.1-7.4 4.8l-.1.1c-1.5 1.1-3.6.8-4.7-.7C1495.4 722.3 1495.7 720.2 1497.3 719.1 1497.2 719.1 1497.3 719.1 1497.3 719.1zM1509.1 762.5c10.2-.7 20.4-1.4 30.6-2.3 10.2-.9 20.4-1.9 30.5-3.1 5.1-.6 10.1-1.3 15.2-2.2 2.5-.4 5-.9 7.5-1.5 2.5-.6 4.9-1.2 7.1-2.3 4.5-2.3 8.9-4.9 13.2-7.8 4.2-2.9 8.4-5.9 12.3-9.2-3.7 3.5-7.7 6.8-11.8 9.9-4.1 3.1-8.4 6-12.9 8.6-2.4 1.3-4.9 2.1-7.4 2.8-2.5.7-5 1.3-7.5 1.9-5 1.1-10.1 2.1-15.1 3-10.1 1.8-20.3 3.4-30.5 4.8-10.2 1.4-20.3 2.8-30.6 4-1.9.2-3.5-1.1-3.8-2.9-.2-1.9 1.1-3.5 2.9-3.8C1509 762.5 1509.1 762.5 1509.1 762.5L1509.1 762.5zM1562.4 618.1c4.6-4.7 9.4-8.8 14.4-12.7 5-3.9 10.2-7.6 15.7-10.8 5.5-3.3 11.2-6.1 17.3-8.3 6-2.2 12.4-3.7 18.8-4 1.6-.1 3.2 0 4.9 0 1.6.1 3.3.3 4.8.5 3.1.4 6.2.9 9.3 1.4 6.2 1 12.4 2.2 18.5 3.3 6.1 1.1 12.3 2.3 18.5 3 6.1.6 12.6.4 18.3-2.3-5.6 3-12.1 3.5-18.3 3.2-6.3-.3-12.5-1.3-18.7-2.1-6.2-.9-12.4-1.8-18.6-2.5-3.1-.4-6.2-.7-9.3-1-1.6-.2-3-.2-4.6-.3-1.5 0-3 0-4.5.2-6 .5-11.9 2.3-17.5 4.6-5.6 2.4-11 5.3-16.1 8.7-5.1 3.4-10 7.1-14.7 11.1-4.6 4-9.2 8.3-13.1 12.7l-.1.1c-1.2 1.4-3.4 1.5-4.8.2s-1.5-3.4-.2-4.8C1562.3 618.2 1562.3 618.2 1562.4 618.1z"/><path fill="#c0473f" d="M1573.9 599.8c11.3-11.8 22.6-23.8 33.7-35.8 5.5-6 11.1-12.1 16.5-18.2 2.7-3.1 5.4-6.2 8-9.3 1.3-1.6 2.6-3.1 3.8-4.7 1.3-1.6 2.5-3.2 3.9-4.8 10.4-12.8 22-24.8 35.2-34.7 13.1-10 28-17.7 44-21.8-15.8 4.6-30.3 12.7-42.9 23.1-12.7 10.3-23.7 22.5-33.6 35.5-1.2 1.6-2.4 3.3-3.6 4.9-1.2 1.6-2.5 3.3-3.7 5-2.5 3.3-5.1 6.5-7.7 9.7-5.2 6.4-10.6 12.6-15.9 18.9-10.7 12.5-21.6 24.8-32.5 37.1-1.2 1.4-3.4 1.5-4.8.3C1572.7 603.4 1572.6 601.3 1573.9 599.8 1573.9 599.9 1573.9 599.8 1573.9 599.8L1573.9 599.8zM1540.6 593.8c2.9-4.3 6-8.4 9.1-12.4 3.2-4 6.5-7.9 9.9-11.7 1.7-1.9 3.5-3.7 5.3-5.6 1.9-1.8 3.7-3.6 5.6-5.3 1.9-1.7 4-3.3 6-4.9 2.1-1.5 4.2-3 6.5-4.3l1.7-1 1.6-.9c1-.6 2.1-1.2 3.1-2 1-.8 2-1.5 2.9-2.3l2.7-2.5c3.5-3.5 6.6-7.4 9.5-11.5 5.6-8.3 10.3-17.3 14-26.7-3.2 9.6-7.4 18.9-12.6 27.6-2.7 4.3-5.7 8.5-9.1 12.4l-2.7 2.8c-.9.9-2 1.7-2.9 2.6-.9.9-2.1 1.6-3.2 2.3l-3.2 2.1c-2.1 1.3-4 2.9-5.9 4.4-1.8 1.7-3.7 3.2-5.4 5-1.8 1.7-3.4 3.6-5.1 5.4-1.6 1.9-3.3 3.7-4.8 5.7-3.2 3.9-6.1 7.9-9 11.9-2.8 4.1-5.6 8.3-8.2 12.5l0 0c-1 1.6-3 2.1-4.6 1.2-1.6-1-2.1-3-1.2-4.6C1540.6 593.9 1540.6 593.8 1540.6 593.8z"/><path fill="#c0473f" d="M1537 603.4c.8-1.8 1.7-4 2.3-6 .7-2.1 1.3-4.2 1.8-6.4 1-4.3 1.8-8.7 2.1-13.1.3-4.4.2-8.9-.3-13.3-.5-4.6-.9-9.2-1.2-13.8-.6-9.2-.9-18.4-1.2-27.5-.3-9.2-.4-18.4-.5-27.5.6 9.2 1.4 18.3 2.2 27.4.8 9.1 1.7 18.3 2.8 27.3.6 4.5 1.2 9.1 2 13.5.8 4.6 1.2 9.4 1.2 14.1 0 4.7-.5 9.5-1.3 14.1-.4 2.3-.9 4.7-1.5 7-.6 2.3-1.3 4.5-2.2 7-.7 1.7-2.6 2.6-4.4 1.9-1.7-.7-2.6-2.6-1.9-4.4 0-.1.1-.1.1-.2L1537 603.4zM1495.9 506.3c-.3-3.6-.4-7-.3-10.5.1-3.5.2-6.9.6-10.3.7-6.9 2-13.7 4.1-20.3 2.1-6.6 5.1-13.1 9.3-18.7 4.1-5.7 9.5-10.5 15.7-13.8 1.5-.8 3.2-1.6 4.8-2.2l4.6-1.9c3.1-1.3 6.1-2.7 9.2-4.1 6.1-2.8 12.1-5.8 18-9 11.9-6.2 23.6-12.8 35.2-19.8-11.2 7.5-22.6 14.7-34.2 21.5-5.8 3.4-11.7 6.7-17.7 9.9-3 1.6-6 3.1-9.1 4.6l-4.6 2.2c-1.5.7-2.9 1.4-4.3 2.2-5.6 3.2-10.3 7.8-13.9 13.1-3.6 5.3-6.2 11.4-7.9 17.6-1.8 6.3-2.7 12.8-3.2 19.3-.2 3.3-.3 6.6-.2 9.8.1 3.2.3 6.6.6 9.7l0 .1c.2 1.8-1.1 3.5-2.9 3.8-1.8.2-3.5-1.1-3.8-2.9C1495.9 506.4 1495.9 506.3 1495.9 506.3z"/><path fill="#c0473f" d="M1501.3 455.5c-1.9-13-4.9-26.1-8.8-38.8-2-6.3-4.3-12.5-7.1-18.5-1.4-3-2.9-5.9-4.7-8.6l-1.3-2c-.5-.7-1-1.5-1.4-2.2-.9-1.5-1.7-3.1-2.4-4.8-1.3-3.3-2.1-6.9-2.1-10.5 0-1.8.1-3.6.5-5.3.3-1.8.8-3.5 1.5-5.1 2.6-6.6 7.4-12 12.8-16.2 2.7-2.1 5.7-3.8 8.7-5.4 3-1.5 6-3 9-4.5 3-1.6 5.9-3.2 8.8-4.8 2.9-1.7 5.8-3.4 8.5-5.5-2.6 2.2-5.4 4.1-8.2 5.9-2.8 1.8-5.7 3.6-8.6 5.3-2.9 1.7-5.8 3.4-8.8 5-2.9 1.6-5.6 3.5-8.2 5.6-5 4.2-9.2 9.5-11.2 15.6-.5 1.5-.9 3.1-1.1 4.6-.2 1.6-.3 3.1-.2 4.7.1 3.1 1 6.2 2.3 9.1.6 1.4 1.4 2.8 2.3 4.1l2.9 4.1c1.9 2.9 3.6 5.9 5.2 8.9 3.2 6.1 5.7 12.4 8 18.9 2.3 6.4 4.2 12.9 5.9 19.5 1.7 6.6 3.2 13.2 4.4 20 .3 1.8-.9 3.6-2.7 3.9-1.8.3-3.6-.9-3.9-2.7C1501.3 455.7 1501.3 455.6 1501.3 455.5L1501.3 455.5zM1455.8 448.4c1-2.6 1.9-5.7 2.6-8.6.7-3 1.4-6 1.9-9 1-6.1 1.5-12.2 1.6-18.4 0-12.3-1.9-24.7-6.3-36.3-2.2-5.8-4.9-11.4-8.2-16.7-1.6-2.6-3.4-5.3-5.2-7.9l-5.2-7.9-21-31.4 22.4 30.5 5.6 7.6c1.9 2.5 3.7 5 5.5 7.7 3.6 5.3 6.7 10.9 9.2 16.8 5.1 11.8 7.7 24.6 8.3 37.5.2 6.4 0 12.9-.8 19.3-.4 3.2-.9 6.4-1.5 9.6-.7 3.2-1.4 6.3-2.4 9.6-.6 1.8-2.5 2.7-4.2 2.2-1.8-.6-2.7-2.5-2.2-4.2 0 0 0-.1 0-.1L1455.8 448.4z"/><path fill="#c0473f" d="M1452.8 469.7c1.7-7.8 2.8-16 3.3-24 .2-4 .2-8.1-.1-12-.4-3.9-1.1-7.9-2.8-11.2-.2-.4-.5-.8-.7-1.2l-.8-1.1-.9-1-1.2-1.1c-1.6-1.4-3-2.9-4.5-4.3-2.9-2.9-5.8-6-8.5-9-5.6-6.1-10.9-12.4-16.2-18.8 5.7 6 11.4 11.9 17.4 17.6 3 2.9 6 5.7 9.1 8.3 1.5 1.3 3.1 2.7 4.7 3.9l1.2.9 1.3 1.2c.4.4.8.9 1.1 1.3.3.5.7.9 1 1.4 2.4 3.9 3.4 8.2 4.1 12.4.7 4.2.9 8.4 1 12.7.1 8.4-.5 16.7-1.7 25.2-.3 1.8-2 3.1-3.8 2.9-1.8-.3-3.1-2-2.9-3.8C1452.7 470 1452.7 469.9 1452.8 469.7L1452.8 469.7zM1370.7 732.9c-5.8-2.7-12.1-5.1-18.4-7-6.3-1.8-12.8-3.3-19.3-3.8-6.5-.5-13.2-.2-19.3 2.2-3 1.2-5.9 2.9-8.2 5.3-2.3 2.3-4.2 5.2-5.6 8.2 1.1-3.2 2.7-6.2 5-8.8 2.2-2.6 5-4.7 8.1-6.2 6.2-3.1 13.3-4.1 20.1-4.1 6.9 0 13.7.9 20.4 2.3 6.7 1.4 13.2 3.2 19.8 5.7 1.7.6 2.6 2.6 2 4.3-.6 1.7-2.6 2.6-4.3 2-.1 0-.2-.1-.3-.1L1370.7 732.9z"/><path fill="#899208" d="M1391.4 802.4c0 0-19.5 63.1 11.9 66.2S1386.5 833.3 1391.4 802.4zM1352 636.3c-.3.4-.6.9-.9 1.3-.3.4-.6.8-.9 1.2-.3.4-.6.8-.9 1.2-.3.4-.7.9-1 1.3-.6.7-1.1 1.4-1.7 2.1-.4.4-.7.8-1.1 1.3-.2.3-.5.5-.7.8-.2.2-.4.4-.6.6-.3.3-.6.6-.9.9-.3.3-.6.6-.9.9-.4.4-.8.7-1.2 1.1-.2.2-.4.3-.6.5-.4.3-.8.7-1.2 1-.2.2-.4.3-.6.5-4 3.2-7.8 5.5-11 7-.3.1-.5.3-.8.4-1.5.7-2.9 1.2-4 1.6-2.2-4.3-6.8-11.6-13-14.3 3-7.7 4.6-16.7 4.6-27.1 0-18.6 6.1-35.2 15.6-48.8 12.3 8.8 20.3 19.3 20.4 19.5.1.2.3.3.5.5C1355.4 598.7 1362.8 619.9 1352 636.3zM1393.7 532.6L1393.7 532.6c0 3.5-.6 7-1.7 10.3-.6 1.7-1.3 3.6-2.2 5.8-.1.4-.3.7-.5 1.1-.7 1.6-1.5 3.3-2.4 5.1-.1.2-.2.5-.4.7-.9 1.7-1.9 3.5-3 5.3-.2.3-.3.5-.5.8-.5.8-1 1.6-1.6 2.3-.2.3-.4.5-.5.8-.9 1.3-1.9 2.5-2.9 3.7-.2.3-.5.6-.7.8-.3.3-.5.6-.8.9-.8.9-1.7 1.8-2.6 2.7-.2.2-.4.4-.7.6-.4.4-.8.8-1.3 1.2-.4.3-.8.7-1.2 1-.2.2-.4.3-.6.5-.2.1-.3.3-.5.4-.1.1-.3.2-.4.3-.9.6-1.8 1.3-2.7 1.8-.3.2-.5.3-.8.5-1.2.7-2.4 1.4-3.6 2-.2.1-.5.2-.7.3-.3.1-.6.3-.9.4-.1.1-.2.1-.3.1-.4.2-.8.3-1.3.5-.1 0-.2.1-.3.1-.4.1-.7.3-1.1.4-.4.1-.8.2-1.1.4-.4.1-.9.3-1.4.4-.3.1-.5.1-.8.2-.1 0-.1 0-.2 0-.3.1-.5.1-.8.2-.2.1-.5.1-.7.1-3.1-3.6-10.1-11.4-19.6-18.2C1349.2 544.9 1373.6 532 1393.7 532.6z"/><path fill="#f9dede" d="M1445.9 1078.7c0 7.8-.1 14.3-.1 19 0 .2 0 .5 0 .7h-1v-.7c0-4.7.1-11.1.1-18.9.3-53.2 1-167.2-.2-179.9 0-.3.2-.5.5-.6.3 0 .5.2.6.5C1446.8 911.5 1446.2 1025.5 1445.9 1078.7zM1445.2 836.1c-.3 0-.5-.2-.5-.5 0-.5-2.4-50.3-19.9-60.6-.2-.1-.3-.5-.2-.7.1-.2.5-.3.7-.2 18 10.6 20.3 59.4 20.4 61.5C1445.7 835.9 1445.5 836.1 1445.2 836.1 1445.2 836.1 1445.2 836.1 1445.2 836.1zM1459.2 792.4v306h-1v-306c0-.3.2-.5.5-.5C1458.9 791.8 1459.2 792.1 1459.2 792.4z"/></g><g><polygon fill="#e5bebe" points="1246.6 1076.8 1245.2 1095.6 1245.1 1097.7 1091.7 1097.7 1211 1081.6 1219.9 1080.4 1220.9 1080.2 1232.8 1078.6 1233.9 1078.5"/><path fill="#899208" d="M1393.7,532.6L1393.7,532.6c0,3.5-0.6,7-1.7,10.3c-0.6,1.7-1.3,3.6-2.2,5.8c-0.1,0.4-0.3,0.7-0.5,1.1
						c-0.7,1.6-1.5,3.3-2.4,5.1c-0.1,0.2-0.2,0.5-0.4,0.7c-0.9,1.7-1.9,3.5-3,5.3c-0.2,0.3-0.3,0.5-0.5,0.8c-0.5,0.8-1,1.6-1.6,2.3
						c-0.2,0.3-0.4,0.5-0.5,0.8c-0.9,1.3-1.9,2.5-2.9,3.7c-0.2,0.3-0.5,0.6-0.7,0.8c-0.3,0.3-0.5,0.6-0.8,0.9
						c-0.8,0.9-1.7,1.8-2.6,2.7c-0.2,0.2-0.4,0.4-0.7,0.6c-0.4,0.4-0.8,0.8-1.3,1.2c-0.4,0.3-0.8,0.7-1.2,1
						c-0.2,0.2-0.4,0.3-0.6,0.5c-0.2,0.1-0.3,0.3-0.5,0.4c-0.1,0.1-0.3,0.2-0.4,0.3c-0.9,0.6-1.8,1.3-2.7,1.8
						c-0.3,0.2-0.5,0.3-0.8,0.5c-1.2,0.7-2.4,1.4-3.6,2c-0.2,0.1-0.5,0.2-0.7,0.3c-0.3,0.1-0.6,0.3-0.9,0.4
						c-0.1,0.1-0.2,0.1-0.3,0.1c-0.4,0.2-0.8,0.3-1.3,0.5c-0.1,0-0.2,0.1-0.3,0.1c-0.4,0.1-0.7,0.3-1.1,0.4
						c-0.4,0.1-0.8,0.2-1.1,0.4c-0.4,0.1-0.9,0.3-1.4,0.4c-0.3,0.1-0.5,0.1-0.8,0.2c-0.1,0-0.1,0-0.2,0c-0.3,0.1-0.5,0.1-0.8,0.2
						c-0.2,0.1-0.5,0.1-0.7,0.1c-3.1-3.6-10.1-11.4-19.6-18.2c-8.1-5.8-17.9-10.9-28.7-12.3c-12.9-1.7-25.2,2.1-36.5,11.1
						c-0.4,0.3-0.7,0.8-0.8,1.4c-0.1,0.6,0.1,1.1,0.4,1.5c0.3,0.4,0.8,0.7,1.4,0.8c0.6,0.1,1.1-0.1,1.5-0.4
						c10.4-8.3,21.6-11.7,33.4-10.2c10,1.3,19.3,6.1,26.8,11.5c12.3,8.8,20.3,19.3,20.4,19.5c0.1,0.2,0.3,0.3,0.5,0.5
						c4.1,9.1,11.5,30.3,0.7,46.7c-0.3,0.4-0.6,0.9-0.9,1.3c-0.3,0.4-0.6,0.8-0.9,1.2c-0.3,0.4-0.6,0.8-0.9,1.2
						c-0.3,0.4-0.7,0.9-1,1.3c-0.6,0.7-1.1,1.4-1.7,2.1c-0.4,0.4-0.7,0.8-1.1,1.3c-0.2,0.3-0.5,0.5-0.7,0.8
						c-0.2,0.2-0.4,0.4-0.6,0.6c-0.3,0.3-0.6,0.6-0.9,0.9c-0.3,0.3-0.6,0.6-0.9,0.9c-0.4,0.4-0.8,0.7-1.2,1.1
						c-0.2,0.2-0.4,0.3-0.6,0.5c-0.4,0.3-0.8,0.7-1.2,1c-0.2,0.2-0.4,0.3-0.6,0.5c-4,3.2-7.8,5.5-11,7c-0.3,0.1-0.5,0.3-0.8,0.4
						c-1.5,0.7-2.9,1.2-4,1.6c-2.2-4.3-6.8-11.6-13-14.3c-0.5,1.3-1.1,2.6-1.7,3.8c4.7,2,8.9,8.4,11.1,12.7
						c1.9,6.6,8.8,38.2-25.6,63.4c-0.3,0.2-0.5,0.4-0.8,0.5c-0.2,0.2-0.5,0.3-0.7,0.5c-1.7,1.1-3.4,2.1-5,2.9
						c-0.3,0.1-0.6,0.3-0.9,0.4c-0.3,0.1-0.6,0.3-0.9,0.4c-0.3,0.1-0.6,0.2-0.9,0.3c-0.3,0.1-0.7,0.3-1,0.4
						c-0.2,0.1-0.4,0.1-0.6,0.2c-0.5,0.1-0.9,0.3-1.4,0.4c-0.2,0.1-0.4,0.1-0.7,0.2h0c-0.2,0.1-0.5,0.1-0.7,0.2
						c-0.1,0-0.2,0.1-0.3,0.1c-0.1,0-0.3,0.1-0.5,0.1c-0.2,0-0.3,0.1-0.5,0.1c-0.3,0-0.5,0.1-0.8,0.1c-0.1,0-0.1,0-0.2,0
						c-0.3,0.1-0.6,0.1-1,0.1c-0.2,0-0.5,0.1-0.7,0.1c-0.1,0-0.2,0-0.2,0c-0.2,0-0.5,0-0.7,0.1c-0.1,0-0.3,0-0.4,0
						c-0.2,0-0.5,0-0.7,0c-0.6,0-1.3,0-1.9,0c-0.4,0-0.8,0-1.2-0.1c-0.3,0-0.5,0-0.8-0.1c-0.4,0-0.9-0.1-1.3-0.1
						c-0.5-0.1-0.9-0.1-1.4-0.2c-0.3-0.1-0.6-0.1-0.9-0.2c-0.8-0.1-1.5-0.3-2.2-0.5c-0.3-0.1-0.6-0.2-1-0.3c-0.5-0.1-1-0.3-1.6-0.5
						c-0.3-0.1-0.6-0.2-0.9-0.3c-1.6-0.6-3.2-1.3-4.7-2c-0.2-0.1-0.4-0.2-0.6-0.3c-0.2-0.1-0.4-0.2-0.6-0.3
						c-1.3-0.7-2.5-1.4-3.8-2.2c-0.2-0.1-0.4-0.3-0.6-0.4c-0.2-0.1-0.3-0.2-0.5-0.3c-0.2-0.1-0.4-0.3-0.6-0.4
						c-0.3-0.2-0.5-0.4-0.8-0.6c-0.2-0.1-0.3-0.2-0.5-0.4c-0.3-0.2-0.6-0.4-0.9-0.7c0,0-0.1,0-0.1-0.1c-0.3-0.2-0.5-0.4-0.8-0.6
						c-0.2-0.1-0.4-0.3-0.6-0.5c-0.3-0.2-0.6-0.5-0.9-0.7c-1-0.8-1.9-1.6-2.9-2.4c-0.5-0.4-1-0.9-1.5-1.3c-0.9-0.8-1.7-1.6-2.6-2.5
						c-0.5-0.5-1-1-1.5-1.5c-0.6-0.7-1.3-1.3-1.9-2c-0.3-0.3-0.6-0.6-0.8-0.9c-0.1-0.1-0.1-0.1-0.2-0.2c-0.4-0.5-0.8-0.9-1.2-1.4
						c-0.1-0.2-0.3-0.3-0.4-0.5c-0.1-0.2-0.3-0.3-0.4-0.5c-0.4-0.5-0.8-1-1.2-1.5c-0.6-0.8-1.3-1.6-1.9-2.3
						c-0.1-0.1-0.2-0.3-0.3-0.4c-0.2-0.2-0.3-0.4-0.5-0.6c-0.2-0.3-0.5-0.6-0.7-0.9c-0.5-0.6-0.9-1.2-1.3-1.8
						c-0.1-0.2-0.3-0.3-0.4-0.5c-1-1.4-1.9-2.7-2.7-3.9c-0.1-0.1-0.2-0.2-0.2-0.4c-0.3-0.5-0.6-0.9-0.9-1.3
						c-0.1-0.2-0.3-0.4-0.4-0.6c-0.4-0.7-0.8-1.3-1.1-1.8c-0.1-0.1-0.2-0.3-0.3-0.4c0,0,0,0,0-0.1c-0.1-0.2-0.2-0.3-0.3-0.5
						c-0.2-0.3-0.3-0.6-0.4-0.7c0-0.1-0.1-0.1-0.1-0.1c0,0,0-0.1,0-0.1l-5.2,24.3l0,0.2c0,0-49.2,25.2-66.7-18.4
						c-1.3-3.2-2.4-6.7-3.3-10.6c0,0-1.5-8.9,0-17.1c0,0-0.1,0-0.3,0c0.9-5,4.7-17.5,19.5-20.5c1.1-0.2,1.9-1.3,1.6-2.5
						c-0.1-0.6-0.4-1-0.9-1.3c-0.5-0.3-1-0.4-1.6-0.3c-17,3.4-21.6,17.9-22.7,23.8c-9.4-2.1-31.4-8.9-39.4-27.4
						c-9.7-22.1-12.3-40.7-0.6-58.6c1.4,0.3,6.9,1.2,14.5,1.2c7.5,0,14.6-0.9,21.3-2.7c17.6-4.7,40.6-18.1,50-55
						c0.1-0.5,0.1-1.1-0.2-1.6c-0.3-0.5-0.7-0.8-1.3-1c-1.1-0.3-2.2,0.4-2.5,1.5c-9,34.9-30.5,47.6-47,52
						c-14.1,3.8-27.2,2.5-32.1,1.7c0-0.1,0.1-0.1,0.1-0.2c0,0-26.4-9.7-38.2-32.8c-3.4-6.7-5.6-14.4-5.6-23.5
						c0-40.1,29.5-104.1,81-111.4c27.8-4,46.8,5.6,55.8,11.5c0.2,0.2,0.4,0.5,0.7,0.6c0.1,0.1,13.9,7.9,15,25.8c0.1,1.1,1,2,2.1,2
						h0.1c0.6,0,1.1-0.3,1.4-0.7c0.4-0.4,0.6-1,0.5-1.5c-0.9-15.5-10.2-24.2-14.7-27.6c7-9.4,30.1-35.1,72.7-30.8
						c0.6,0.1,1.3,0.1,1.9,0.2c0.2,0,0.4,0.1,0.6,0.1c0.7,0.1,1.5,0.2,2.2,0.3c0.8,0.1,1.5,0.2,2.3,0.4c0.7,0.1,1.3,0.2,2,0.4
						c0,0,0,0,0,0c0.1,0,0.2,0,0.4,0.1c0.2,0,0.4,0.1,0.6,0.1c0.3,0.1,0.7,0.1,1.1,0.2c0.3,0.1,0.5,0.1,0.8,0.2c0.1,0,0.1,0,0.1,0
						c0.5,0.1,1.1,0.3,1.6,0.4c0,0,0,0,0.1,0c0.7,0.2,1.3,0.3,2,0.5c0,0,0,0,0.1,0c0.7,0.2,1.3,0.4,2,0.6c0,0,0,0,0,0
						c0.6,0.2,1.1,0.3,1.6,0.5c0.1,0,0.1,0,0.2,0.1c0.4,0.1,0.8,0.3,1.2,0.4c0.2,0.1,0.3,0.1,0.5,0.2c0.3,0.1,0.5,0.2,0.8,0.3
						c0.5,0.2,0.9,0.3,1.3,0.5c0.2,0.1,0.4,0.1,0.6,0.2c0,0,0.1,0,0.1,0c0.3,0.1,0.6,0.2,0.8,0.3c0,0,0,0,0.1,0
						c0.3,0.1,0.5,0.2,0.7,0.3c1.1,0.5,2.2,1,3.2,1.5c0.6,0.3,1.1,0.6,1.7,0.9c1.1,0.6,2.1,1.1,3.1,1.7c0.2,0.1,0.3,0.2,0.5,0.3
						c0.5,0.3,0.9,0.6,1.4,0.8c0,0,0,0,0,0c0.4,0.3,0.9,0.6,1.3,0.9c0.5,0.3,1,0.7,1.5,1c0.9,0.6,1.8,1.3,2.7,2
						c0.3,0.3,0.7,0.5,1,0.8c0.2,0.1,0.3,0.3,0.5,0.4c0.4,0.3,0.8,0.7,1.2,1c0.4,0.4,0.8,0.7,1.2,1.1c0.8,0.7,1.6,1.5,2.4,2.3
						c0.4,0.4,0.8,0.8,1.1,1.2c0.4,0.4,0.8,0.9,1.2,1.3c0.4,0.4,0.8,0.8,1.1,1.3c0.1,0.1,0.1,0.2,0.2,0.2c0.3,0.3,0.6,0.7,0.8,1
						c0.1,0.1,0.2,0.3,0.3,0.4c0.2,0.3,0.5,0.6,0.7,0.9c0.3,0.3,0.5,0.7,0.8,1c0.2,0.3,0.4,0.5,0.6,0.8c0.9,1.3,1.8,2.5,2.6,3.8
						c0.3,0.4,0.5,0.8,0.7,1.2c0.2,0.3,0.4,0.6,0.5,0.9c0.1,0.2,0.3,0.4,0.4,0.7c0.2,0.3,0.3,0.6,0.5,0.9c0.2,0.4,0.4,0.8,0.7,1.2
						c0.1,0.2,0.3,0.5,0.4,0.7c0.1,0.3,0.3,0.5,0.4,0.8c0.3,0.6,0.6,1.2,0.9,1.8c0.2,0.3,0.3,0.7,0.5,1c0.8,1.7,1.4,3.3,2,4.9
						c0.1,0.3,0.2,0.6,0.3,0.9c0.2,0.7,0.4,1.3,0.6,2c0,0.1,0.1,0.3,0.1,0.5c0.2,0.7,0.4,1.4,0.6,2.1c0.1,0.4,0.2,0.7,0.3,1.1
						c0.1,0.3,0.1,0.5,0.2,0.8c0.1,0.5,0.2,1,0.3,1.5c0.1,0.3,0.1,0.6,0.2,0.9c0,0,0,0,0,0c-8.7,0.1-24.6,2.2-35.4,13.7
						c-10.3,11-13.5,27.9-9.3,50.1c0.2,1,1,1.7,2,1.7c0.1,0,0.3,0,0.4,0c0.6-0.1,1-0.4,1.3-0.9c0.3-0.5,0.4-1,0.3-1.6
						c-3.9-20.9-1.1-36.5,8.3-46.5c10.3-11.1,26.5-12.4,34.1-12.4h0c0.5,0.1,1.1,0.2,1.8,0.4h0c0,0,0.1,0,0.1,0
						c0.5,0.1,1,0.3,1.6,0.4c0.1,0,0.3,0.1,0.5,0.1c0.1,0,0.3,0.1,0.4,0.1s0.3,0.1,0.4,0.1l0.6,0.2c0.2,0.1,0.4,0.1,0.6,0.2
						c0.1,0.1,0.3,0.1,0.5,0.2c1.9,0.6,4.2,1.5,6.5,2.7c0.4,0.2,0.9,0.4,1.3,0.7c0.2,0.1,0.5,0.2,0.7,0.4c0.2,0.1,0.5,0.3,0.7,0.4
						c1.5,0.8,3,1.7,4.6,2.7c0.3,0.2,0.7,0.5,1.1,0.7c0.8,0.5,1.5,1.1,2.3,1.6c0.2,0.2,0.5,0.3,0.7,0.5c2,1.5,4,3.3,5.9,5.3
						c0.2,0.2,0.5,0.5,0.7,0.8c0.7,0.8,1.5,1.5,2.2,2.4c0.2,0.3,0.5,0.6,0.7,0.8c0.2,0.2,0.4,0.4,0.5,0.7c0.3,0.4,0.6,0.7,0.9,1.1
						c0.2,0.3,0.4,0.5,0.6,0.8c1,1.3,1.9,2.6,2.8,4C1388,489.5,1393.9,507.1,1393.7,532.6z"/><path fill="#679208" d="M1319.7,662.1c1.9,6.6,8.8,38.2-25.6,63.4c-0.3,0.2-0.5,0.4-0.8,0.5c-0.2,0.2-0.5,0.3-0.7,0.5
						c-1.7,1.1-3.4,2.1-5,2.9c-0.3,0.1-0.6,0.3-0.9,0.4c-0.3,0.1-0.6,0.3-0.9,0.4c-0.3,0.1-0.6,0.2-0.9,0.3c-0.3,0.1-0.7,0.3-1,0.4
						c-0.2,0.1-0.4,0.1-0.6,0.2c-0.5,0.1-0.9,0.3-1.4,0.4c-0.2,0.1-0.4,0.1-0.7,0.2h0c-0.2,0.1-0.5,0.1-0.7,0.2
						c-0.1,0-0.2,0.1-0.3,0.1c-0.1,0-0.3,0.1-0.5,0.1c-0.2,0-0.3,0.1-0.5,0.1c-0.3,0-0.5,0.1-0.8,0.1c-0.1,0-0.1,0-0.2,0
						c-0.3,0.1-0.6,0.1-1,0.1c-0.2,0-0.5,0.1-0.7,0.1c-0.1,0-0.2,0-0.2,0c-0.2,0-0.5,0-0.7,0.1c-0.1,0-0.3,0-0.4,0
						c-0.2,0-0.5,0-0.7,0c-0.6,0-1.3,0-1.9,0c-0.4,0-0.8,0-1.2-0.1c-0.3,0-0.5,0-0.8-0.1c-0.4,0-0.9-0.1-1.3-0.1
						c-0.5-0.1-0.9-0.1-1.4-0.2c-0.3-0.1-0.6-0.1-0.9-0.2c-0.8-0.1-1.5-0.3-2.2-0.5c-0.3-0.1-0.6-0.2-1-0.3c-0.5-0.1-1-0.3-1.6-0.5
						c-0.3-0.1-0.6-0.2-0.9-0.3c-1.6-0.6-3.2-1.3-4.7-2c-0.2-0.1-0.4-0.2-0.6-0.3c-0.2-0.1-0.4-0.2-0.6-0.3
						c-1.3-0.7-2.5-1.4-3.8-2.2c-0.2-0.1-0.4-0.3-0.6-0.4c-0.2-0.1-0.3-0.2-0.5-0.3c-0.2-0.1-0.4-0.3-0.6-0.4
						c-0.3-0.2-0.5-0.4-0.8-0.6c-0.2-0.1-0.3-0.2-0.5-0.4c-0.3-0.2-0.6-0.4-0.9-0.7c0,0-0.1,0-0.1-0.1c-0.3-0.2-0.5-0.4-0.8-0.6
						c-0.2-0.1-0.4-0.3-0.6-0.5c-0.3-0.2-0.6-0.5-0.9-0.7c-1-0.8-1.9-1.6-2.9-2.4c-0.5-0.4-1-0.9-1.5-1.3c-0.9-0.8-1.7-1.6-2.6-2.5
						c-0.5-0.5-1-1-1.5-1.5c-0.6-0.7-1.3-1.3-1.9-2c-0.3-0.3-0.6-0.6-0.8-0.9c-0.1-0.1-0.1-0.1-0.2-0.2c-0.4-0.5-0.8-0.9-1.2-1.4
						c-0.1-0.2-0.3-0.3-0.4-0.5c-0.1-0.2-0.3-0.3-0.4-0.5c-0.4-0.5-0.8-1-1.2-1.5c-0.6-0.8-1.3-1.6-1.9-2.3
						c-0.1-0.1-0.2-0.3-0.3-0.4c-0.2-0.2-0.3-0.4-0.5-0.6c-0.2-0.3-0.5-0.6-0.7-0.9c-0.5-0.6-0.9-1.2-1.3-1.8
						c-0.1-0.2-0.3-0.3-0.4-0.5c-1-1.4-1.9-2.7-2.7-3.9c-0.1-0.1-0.2-0.2-0.2-0.4c-0.3-0.5-0.6-0.9-0.9-1.3
						c-0.1-0.2-0.3-0.4-0.4-0.6c-0.4-0.7-0.8-1.3-1.1-1.8c-0.1-0.1-0.2-0.3-0.3-0.4c0,0,0,0,0-0.1c-0.1-0.2-0.2-0.3-0.3-0.5
						c-0.2-0.3-0.3-0.6-0.4-0.7c0-0.1-0.1-0.1-0.1-0.1c0,0,0-0.1,0-0.1l-5.2,24.3l0,0.2c0,0-49.2,25.2-66.7-18.4
						c7.8-3.9,17.6-6,29.7-5.7c12.5,0.3,24.3,0.2,35.4-0.3c7.8-0.3,15.1-0.9,22.2-1.7c36.6-4.2,62.7-15.3,74.1-38.8
						C1313.3,651.4,1317.5,657.8,1319.7,662.1z"/><path fill="#a5a816" d="M1380.1,477.2c-6.4,14.9-15.4,28.9-21.9,40.4c-18.1,31.7-95.2-22.7-151.9-47.6
						c-56.6-24.9-66.9,19.3-128.4,60.4c-6,4-10.4,8.8-13.6,14.2c-3.4-6.7-5.6-14.4-5.6-23.5c0-40.1,29.5-104.1,81-111.4
						c27.8-4,46.8,5.6,55.8,11.5c0.2,0.2,0.4,0.5,0.7,0.6c0.1,0.1,13.9,7.9,15,25.8c0.1,1.1,1,2,2.1,2h0.1c0.6,0,1.1-0.3,1.4-0.7
						c0.4-0.4,0.6-1,0.5-1.5c-0.9-15.5-10.2-24.2-14.7-27.6c7-9.4,30.1-35.1,72.7-30.8c0.6,0.1,1.3,0.1,1.9,0.2
						c0.2,0,0.4,0.1,0.6,0.1c0.7,0.1,1.5,0.2,2.2,0.3c0.8,0.1,1.5,0.2,2.3,0.4c0.7,0.1,1.3,0.2,2,0.4c0,0,0,0,0,0
						c0.1,0,0.2,0,0.4,0.1c0.2,0,0.4,0.1,0.6,0.1c0.3,0.1,0.7,0.1,1.1,0.2c0.3,0.1,0.5,0.1,0.8,0.2c0.1,0,0.1,0,0.1,0
						c0.5,0.1,1.1,0.3,1.6,0.4c0,0,0,0,0.1,0c0.7,0.2,1.3,0.3,2,0.5c0,0,0,0,0.1,0c0.7,0.2,1.3,0.4,2,0.6c0,0,0,0,0,0
						c0.6,0.2,1.1,0.3,1.6,0.5c0.1,0,0.1,0,0.2,0.1c0.4,0.1,0.8,0.3,1.2,0.4c0.2,0.1,0.3,0.1,0.5,0.2c0.3,0.1,0.5,0.2,0.8,0.3
						c0.5,0.2,0.9,0.3,1.3,0.5c0.2,0.1,0.4,0.1,0.6,0.2c0,0,0.1,0,0.1,0c0.3,0.1,0.6,0.2,0.8,0.3c0,0,0,0,0.1,0
						c0.3,0.1,0.5,0.2,0.7,0.3c1.1,0.5,2.2,1,3.2,1.5c0.6,0.3,1.1,0.6,1.7,0.9c1.1,0.6,2.1,1.1,3.1,1.7c0.2,0.1,0.3,0.2,0.5,0.3
						c0.5,0.3,0.9,0.6,1.4,0.8c0,0,0,0,0,0c0.4,0.3,0.9,0.6,1.3,0.9c0.5,0.3,1,0.7,1.5,1c0.9,0.6,1.8,1.3,2.7,2
						c0.3,0.3,0.7,0.5,1,0.8c0.2,0.1,0.3,0.3,0.5,0.4c0.4,0.3,0.8,0.7,1.2,1c0.4,0.4,0.8,0.7,1.2,1.1c0.8,0.8,1.6,1.5,2.4,2.3
						c0.4,0.4,0.8,0.8,1.1,1.2c0.4,0.4,0.8,0.9,1.2,1.3c0.4,0.4,0.8,0.8,1.1,1.3c0.1,0.1,0.1,0.2,0.2,0.2c0.3,0.3,0.6,0.7,0.8,1
						c0.1,0.1,0.2,0.3,0.3,0.4c0.2,0.3,0.5,0.6,0.7,0.9c0.3,0.3,0.5,0.7,0.8,1c0.2,0.3,0.4,0.5,0.6,0.8c0.9,1.3,1.8,2.5,2.6,3.8
						c0.3,0.4,0.5,0.8,0.7,1.2c0.2,0.3,0.4,0.6,0.5,0.9c0.1,0.2,0.3,0.4,0.4,0.7c0.2,0.3,0.3,0.6,0.5,0.9c0.2,0.4,0.4,0.8,0.7,1.2
						c0.1,0.2,0.3,0.5,0.4,0.7c0.1,0.3,0.3,0.5,0.4,0.8c0.3,0.6,0.6,1.2,0.9,1.8c0.2,0.3,0.3,0.7,0.5,1c0.8,1.7,1.4,3.3,2,4.9
						c0.1,0.3,0.2,0.6,0.3,0.9c0.2,0.7,0.4,1.3,0.6,2c0,0.1,0.1,0.3,0.1,0.5c0.2,0.7,0.4,1.4,0.6,2.1c0.1,0.4,0.2,0.7,0.3,1.1
						c0.1,0.3,0.1,0.5,0.2,0.8c0.1,0.5,0.2,1,0.3,1.5c0.1,0.3,0.1,0.6,0.2,0.9c0,0,0,0,0,0c-8.7,0.1-24.6,2.2-35.4,13.7
						c-10.3,11-13.5,27.9-9.3,50.1c0.2,1,1,1.7,2,1.7c0.1,0,0.3,0,0.4,0c0.6-0.1,1-0.4,1.3-0.9c0.3-0.5,0.4-1,0.3-1.6
						c-3.9-20.9-1.1-36.5,8.3-46.5c10.3-11.1,26.5-12.4,34.1-12.4h0c0.5,0.1,1.1,0.2,1.8,0.4c0,0,0.1,0,0.1,0c0.5,0.1,1,0.3,1.6,0.4
						c0.1,0,0.3,0.1,0.5,0.1c0.1,0,0.3,0.1,0.4,0.1s0.3,0.1,0.4,0.1l0.6,0.2c0.2,0.1,0.4,0.1,0.6,0.2c0.1,0.1,0.3,0.1,0.5,0.2
						c1.9,0.6,4.2,1.5,6.5,2.7c0.4,0.2,0.9,0.4,1.3,0.7c0.2,0.1,0.5,0.2,0.7,0.4c0.2,0.1,0.5,0.3,0.7,0.4c1.5,0.8,3,1.7,4.6,2.7
						c0.3,0.2,0.7,0.5,1.1,0.7c0.8,0.5,1.5,1.1,2.3,1.6c0.2,0.2,0.5,0.3,0.7,0.5c2,1.5,4,3.3,5.9,5.3c0.2,0.2,0.5,0.5,0.7,0.8
						c0.7,0.8,1.5,1.5,2.2,2.4c0.2,0.3,0.5,0.6,0.7,0.8c0.2,0.2,0.4,0.4,0.5,0.7c0.3,0.4,0.6,0.7,0.9,1.1c0.2,0.3,0.4,0.5,0.6,0.8
						C1378.2,474.5,1379.2,475.8,1380.1,477.2z"/><path fill="#c0473f" d="M1234.1,710.1c-0.4,64.4,4.4,171.5,4.4,171.5l10.8,213.7l0.1,2.4h-38.8c0.1-4.2,0.3-9.6,0.4-16.1
						c1.9-73.5,6.8-282.3,3-367.5v0c-0.4-9.9-1-18.1-1.7-24.2c-0.6-5.2-1.3-8.9-2-10.9c-11.1-28.3-32-69.3-33.3-71.9
						c0-0.1-0.1-0.1-0.1-0.1s5.1-11.1,11.2-10.5c0.1,0,0.2,0,0.3,0c0,0,10.4,39.6,15.7,12.5c5.2-27.1,1-30.3,1-30.3s0.1-0.1,0.2-0.1
						c0,0,0,0,0,0c0.8-0.6,4.5-2.6,12,0.1c0,0,0,0,0,0.1c-0.5,3.4-11.8,80.2,8.6,79.1c0,0,4.8-3.5,10.3-11.2
						c0.2-0.2,0.3-0.5,0.5-0.7c6.6-9.5,14.1-24.9,15.2-47.2c0-0.1,0-0.2,0-0.3c0,0,7.3,4.2,9.4,10.4c0,0-0.1,0.2-0.3,0.5
						c-1.9,2.9-12.3,19.3-19.5,39.1c-0.2,0.4-0.3,0.8-0.5,1.3c-1.9,5.3-3.6,10.9-4.8,16.5c-0.9,4.3-1.5,11.9-1.9,21.8
						C1234.3,694.6,1234.1,702,1234.1,710.1z"/><path fill="#8d473f" d="M1174.2 615.2l-1.2-.2c0-.2 3.8-20.3 19.9-20.3.2 0 .3 0 .5 0l0 1.2C1177.9 595.4 1174.2 615 1174.2 615.2zM1225.9 582.4c-18-9.8-27.5-.2-27.6-.1l-.9-.8c.1-.1 10.2-10.3 29-.1L1225.9 582.4z"/><path fill="#899208" d="M1155.9 819.2c0 0 20.8-11.9 18.9 10.1-1.9 21.9-27.2 25.4-26.3 38.1C1148.4 867.4 1130.4 843.8 1155.9 819.2zM1122.8 743.5c0 0-10.6 35.2 12.4 33.8 23-1.4 18.3-16.3 12.2-21S1123.2 764.4 1122.8 743.5z"/><path fill="#f9dede" d="M1234.3 1097.7h-1c0-.3 0-.7 0-1.1-.1-5.5-.3-11.6-.4-18-1.5-61.7-4.1-157.8-4.2-159.2 0-.3.2-.5.5-.5 0 0 0 0 0 0 .3 0 .5.2.5.5 0 1.4 2.6 97.3 4.2 159.1.2 6.4.3 12.5.4 18.1C1234.3 1096.9 1234.3 1097.3 1234.3 1097.7zM1221 1097.7L1221 1097.7l-1 0c0-5.3-.1-11.1-.1-17.3-.4-53.7-1.2-135.8-1.2-137 0-.3.2-.5.5-.5.3 0 .5.2.5.5.1 4.9.8 84.4 1.2 136.9C1221 1086.5 1221 1092.4 1221 1097.7zM1226.1 908.8c-.3 0-.5-.2-.5-.5V777.3c0-.3.2-.5.5-.5s.5.2.5.5v130.9C1226.7 908.6 1226.4 908.8 1226.1 908.8z"/></g><g><ellipse cx="624" cy="1664.3" fill="#e5bebe" rx="311.1" ry="41.9"/><path fill="#388108" d="M460.9 1528.3c0 0 17.4 6.6 13.3-26.3s-4.6-44.2.6-58.8c0 0-27.1 29.4-24.7 52.3C452.5 1518.5 460.9 1528.3 460.9 1528.3zM622.9 1431.8c0 0 22.1-9 36.2-56.7 9.5-32.2-3.6-69.1-30-72.7 0 0 10 20 1.8 47.3C622.7 1376.8 603.3 1414.5 622.9 1431.8zM593.9 1494.4c0 0-24.5 9.3-18.7-37 5.8-46.3 6.5-62.3-.9-82.8 0 0 38.1 41.4 34.8 73.7C605.8 1480.6 593.9 1494.4 593.9 1494.4zM446.7 1431.8c0 0-22.1-9-36.2-56.7-9.5-32.2 3.6-69.1 30-72.7 0 0-10 20-1.8 47.3C446.9 1376.8 466.3 1414.5 446.7 1431.8zM732.8 1456.4c0 0-49-11.9-59.5 8.3-10.5 20.2-8.1 34.2-8.1 34.2S711 1484.9 732.8 1456.4z"/><ellipse cx="639" cy="1659.1" fill="#384f08" rx="47.7" ry="7.5"/><path fill="#384f08" d="M645,1613.6c-1.1,0-1.9-0.8-2-1.9c0-0.5-3.3-47.9-26.1-72.3c-24.8-26.6-28.7-54.5-27.5-73.3
							c1.2-19,0-25.2,0-25.2c-0.2-1.1,0.5-2.2,1.6-2.4c1.1-0.2,2.2,0.5,2.4,1.6c0.1,0.3,1.3,6.5,0,26.3c-1.1,18,2.6,44.8,26.4,70.3
							c23.8,25.4,27,72.8,27.2,74.8c0.1,1.1-0.8,2.1-1.9,2.1C645,1613.6,645,1613.6,645,1613.6z"/><path fill="#384f08" d="M639,1661.6c-0.1,0-0.2,0-0.4,0c-1.4-0.2-2.3-1.5-2.1-2.9c0.2-1.2,18-122.6,8.3-163.2
							c-3.3-13.9-8.1-24.6-12.2-34c-8.4-18.9-15.6-35.2-7.6-66.5c0.3-1.4,1.7-2.2,3.1-1.8c1.4,0.3,2.2,1.7,1.8,3.1
							c-7.5,29.6-1,44.4,7.3,63.2c4.3,9.7,9.1,20.6,12.5,34.9c9.9,41.5-2,159.7-2.7,164.7C646.8,1660.3,640.3,1661.6,639,1661.6z"/><ellipse cx="430.6" cy="1659.1" fill="#384f08" rx="47.7" ry="7.5"/><path fill="#384f08" d="M424.6,1613.6c0,0-0.1,0-0.1,0c-1.1-0.1-2-1-1.9-2.1c0.1-1.4,2.4-35.3,19.5-53.5
							c16.8-18,19.4-36.8,18.6-49.5c-0.9-14.1,0-18.6,0-18.8c0.2-1.1,1.3-1.8,2.4-1.6c1.1,0.2,1.8,1.3,1.6,2.4c0,0-0.8,4.4,0,17.8
							c0.8,13.5-1.9,33.5-19.7,52.5c-16.1,17.2-18.4,50.6-18.4,51C426.6,1612.8,425.7,1613.6,424.6,1613.6z"/><path fill="#384f08" d="M430.6,1661.6c-1.2,0-7.1-1.3-7.3-2.5c-0.7-5-13.3-123.2-3.3-164.7c3.4-14.3,8.3-25.2,12.5-34.9
							c8.3-18.8,14.9-33.6,7.3-63.2c-0.3-1.4,0.5-2.7,1.8-3.1c1.4-0.3,2.7,0.5,3.1,1.8c8,31.3,0.8,47.6-7.6,66.5
							c-4.2,9.5-8.9,20.2-12.2,34c-9.7,40.6,16.1,162.3,16.2,163.5c0.2,1.4-8.7,2.3-10.1,2.5
							C430.8,1661.6,430.7,1661.6,430.6,1661.6z"/><ellipse cx="833.1" cy="1659.1" fill="#384f08" rx="47.7" ry="7.5"/><path fill="#384f08" d="M651,1533.4c-0.3,0-0.5,0-0.8-0.1c-1.3-0.4-2-1.9-1.6-3.2c0.8-2.4,19.8-58.1,46.4-65.4
							c1.3-0.4,2.7,0.4,3.1,1.8c0.4,1.3-0.4,2.7-1.8,3.1c-24,6.6-42.7,61.5-42.9,62.1C653,1532.7,652,1533.4,651,1533.4z"/></g><g><path fill="#e5bebe" d="M1554.3,1733.8c0,0,210.6,9.6,234.4,1.8c23.7-7.8-76.4-22.5-120.8-24.1
						C1620.2,1709.8,1554.3,1733.8,1554.3,1733.8z"/><path fill="#02184f" d="M1554.3,1673.6c0,0,21.9-35.2,13.1-58.9h-6.4L1554.3,1673.6z"/><path fill="#02184f" d="M1546.9,1618.1c0,0,63.6-11,92.8-21.4c10.1-3.6-26.3,127.5-35.8,133.8c-4.5,3-30.5,3.5-49.6,3.2
								c-13.5-0.2-21.7-15.9-8.4-18.3c13.6-2.5,23.6-3.7,30.3-7.9c22.6-14.1,9.8-56.3,9.2-60.4c-0.3-2.1-56.1,21.9-56.1,21.9
								L1546.9,1618.1z"/><path fill="#1d33b5" d="M1283.2,1731.8c0,0,76.4,17.8,271.1-58.2l6.8-58.9c0,0-239.1,23.5-277.9,47.1
							C1244.3,1685.3,1283.2,1731.8,1283.2,1731.8z"/></g><g><path fill="#1d33b5" d="M1213.7,1442.5c0,0,36.8,285.1,69.4,289.3c32.6,4.2,67.2-73.9,60.9-80.2c-6.3-6.3,21.2-223.8,21.2-223.8
							L1213.7,1442.5z"/></g><g display="none"><path fill="#000d26" d="M1066,1058.3c4.5,21-8.6,39.8-13.5,59.4c-0.9,3.5-2.2,7.7-1.4,11.3c0.8,3.7,3.5,4.9,6.4,6.9
						c6.8,4.9,8.9,14.5,5.2,21.9c-1.4,2.9,2.9,5.4,4.3,2.5c3.1-6.2,3.3-13.1,0.6-19.5c-1.4-3.2-3.5-6.1-6.3-8.3
						c-2.3-1.9-4.8-3-5.4-6.4c-0.4-2.4,1.2-6.6,1.8-8.9c5.5-20,17.6-38.8,13-60.3C1070.2,1053.9,1065.3,1055.2,1066,1058.3
						L1066,1058.3z"/><path fill="#000d26" d="M1004.6,984.2c0,0,52,31.9,57.4,62.5c5.4,30.6-15.2,69.8,2.5,77.1c17.7,7.3,16.8,14.4,15.2,22.7
						c-1.6,8.3-4.7,17.5,4.3,25.5c45.1,40.1,113.8-7.8,113.8-7.8l-42-136.7l-75.5-99.2L1004.6,984.2z"/></g><g><path fill="#388108" d="M858.6 1107.6c0 0 4.2-33.8-10.4-57.1s-20.8-24-20.8-39.3c0 0-22.4 22.2-11.5 53.4S849.8 1109.6 858.6 1107.6zM901.8 1114c0 0-21.8-18.4-9.8-54.5 12-36-3.6-65.7-3.6-65.7s42.1 32.5 38 65.7C922.1 1092.7 901.8 1114 901.8 1114zM942.9 1173.4c0 0-8.8-46.3 59.4-52.1C1002.3 1121.3 1021 1174.9 942.9 1173.4z"/><path fill="#384f08" d="M914.7,1314.4c-0.2-0.8-21.3-80.9-18.4-134.8c0.6-11.9,1.3-22.9,2-33.1c2.2-35.4,3.9-63.5,1.8-94.2
								c-0.1-0.9,0.6-1.7,1.5-1.8l0,0c0.9-0.1,1.7,0.6,1.8,1.6c2.1,30.9,0.4,59.1-1.8,94.6c-0.6,10.3-1.3,21.2-2,33.1
								c-2.9,53.4,33.9,130.3,18.3,133.7L914.7,1314.4z"/><path fill="#384f08" d="M900.5 1231.1L900.5 1231.1c-1-.2-1.5-1.2-1.2-2.1 1.6-5.1 7.8-20.7 26.8-40.9 19.9-21.1 45.1-43 51-48 .7-.6 1.8-.5 2.4.2l0 0c.6.7.5 1.8-.2 2.4-5.9 5-31 26.7-50.7 47.8-18.4 19.6-24.5 35-26 39.6C902.2 1230.9 901.4 1231.3 900.5 1231.1zM897.9 1179.7c-.9.2-1.7-.3-2-1.2-2-7.2-11.9-38.9-41.4-69.7-29.7-31.1-31.2-55.7-31-62.5 0-1 .9-1.7 1.9-1.6l0 0c.8.1 1.5.8 1.5 1.7-.1 6.1 1.5 30 30.1 60.1 29.9 31.3 40.1 63.5 42.2 71.2C899.4 1178.6 898.8 1179.5 897.9 1179.7L897.9 1179.7z"/><path fill="#273d08" d="M903.8,1323.1c1.5,2.7,3.9,6.7-8.1,29c-20.5,38.2-58.8,48.2-59.2,80.3c-0.1,9.6,7.4,18.2,20.5,22.7
								c17.5,6,39.3,16.9,38,32.5c-1.5,17.9,66.7,24.1,78.4-12s0.3-83.1-25.2-105.9c-25.4-22.7-33.5-57.5-15.2-57
								c18.3,0.5,7.2-7.6,4-22.3c-3.2-14.7-11.2,28.5-27.3,2.7s-40.4-10.9-28.4,3.8C886,1302.5,898.8,1314.4,903.8,1323.1z"/></g><g><path fill="#3345d1" d="M1373.7,1473.4c-9.4,31-37.8,56.3-107.4,52.2c-132.7-8-196.7-31.6-196.7-31.6s-153-79.3-119.3-82.5
							c24.2-2.3,88.5-9.2,170.6-22.6c220.2-36,232.7,1.9,239.5-8c2.3-3.3,2.4-5.8,2.4-5.8s0.9,2.1,2.3,5.8
							C1370.8,1396.2,1384.3,1438.4,1373.7,1473.4z"/><path fill="#2239c7" d="M1373.7,1473.4c-11.4,6.1-27,8.8-48,4.3c-73-15.5-57.1-53.5-125.9-50c-53.6,2.7-77.6-25-78.8-38.8
						c32.2-2.4,67.7-1.9,105.5,4c101.1,15.6,127.2-2.1,134-11.9c1.6,0,3.2,0,4.7,0C1370.8,1396.2,1384.3,1438.4,1373.7,1473.4z"/></g><g><path fill="#e5bebe" d="M1002.4,1769.7c0,0,299.5,13.3,327.2,0C1357.4,1756.4,1150.1,1740.8,1002.4,1769.7z"/><path fill="#02184f" d="M1091.7,1707.9c0,0,22.5,4.3,53.6,3.5c31.1-0.8,34.4-3.5,34.4-3.5S1107.4,1691.9,1091.7,1707.9z"/><path fill="#02184f" d="M1172.7,1699.2c0,0,34.1,62.3,25.7,65.5c-8.4,3.2-195.9,5-195.9,5s4.8-29.6,32-30.8
								c66.7-2.9,125.7,7.3,69.2-64.7C1082,1646.5,1172.7,1699.2,1172.7,1699.2z"/><path fill="#3345d1" d="M1091.7,1707.9c0,0,47.9-8.6,87.9,0c0,0-100.4-199.7-132-252.8c-47.6-80-103.1-46.8-102.3-32.5
							C946,1436.9,1091.7,1707.9,1091.7,1707.9z"/></g><g><path fill="#f47a37" d="M1274.9,1427.7c-3.6-3.2-7.9-6-12.8-8.3c-43.6-20.5-131.1-6.9-124.5-31.9
								c13.3-50.2-20.2-324.2-20.2-324.2l53-33.7c0,0,20.4,7.4,61.3,78.6c8.9,15.4,32.2,47.3,34.8,62.2
								c17.8,103.5,61.8,144.3,103.8,218.8C1402.9,1447,1310.6,1460,1274.9,1427.7z"/><ellipse cx="1142.1" cy="1147.4" fill="#e04037" rx="9.8" ry="18.3" transform="rotate(-13.426 1142.126 1147.38)"/><ellipse cx="1157.7" cy="1296.7" fill="#e04037" rx="9.8" ry="18.3" transform="rotate(-13.426 1157.748 1296.72)"/><ellipse cx="1151" cy="1222" fill="#e04037" rx="9.8" ry="18.3" transform="rotate(-13.426 1150.97 1222.05)"/><ellipse cx="1157.7" cy="1355.3" fill="#e04037" rx="9.8" ry="18.3" transform="rotate(-13.426 1157.749 1355.293)"/><path fill="#f45a37" d="M1274.9,1427.7c-3.6-3.2-7.9-6-12.8-8.3c1-0.3,44.3-15.3-6.7-117.4c-51.6-103.2-111.6-223.4-41.6-180.8
							c15.5,9.5,33.8,27.2,52.8,49.1c17.8,103.5,61.8,144.3,103.8,218.8C1402.9,1447,1310.6,1460,1274.9,1427.7z"/></g><g><path fill="#f2aa91" d="M945.3,1422.6l-37.1,20.9c-18.4-1.2-45.5-3.6-50-6.7c-6.1-4.3-9.1,6,19.1,16.2
							c-2.6,0.7-16.9,1.3-18.8,2.2c-12.2,5.4,19,32.5,36.6,32.5c17.6,0,77.2-40.7,77.2-40.7L945.3,1422.6z"/><path fill="#f45a37" d="M1192.2,1093.1c0,0-50,114.5-118.1,199.3c-42.9,53.5-108.3,87.2-124.5,97.9
								c-6.4,4.2-11.1,8.2-14.3,11.9c-17.9,20.7,17.4,43.7,37,44.8c10.8,0.6,93.1-46.3,150.6-110.5c65.4-73,106.2-164.5,106.2-164.5
								L1192.2,1093.1z"/></g><g><path fill="#f2aa91" d="M1004.6,984.2c0,0,3.8,16.2,25.1,37c18.2,17.7,26.9,31.6,64.4,38.8c48.1,9.3,25.1-107.8,25.1-107.8
							l-49.1-17.5l-63.5,25.8L1004.6,984.2z"/><path fill="#d1634a" d="M1083.3 1055.1c-1.3.1-2.6-.5-3.3-1.8-.9-1.6-.2-3.6 1.4-4.5.6-.3 12.6-7.2 11.7-28.8-.1-1.8 1.3-3.4 3.2-3.5 1.8-.1 3.4 1.3 3.5 3.2 1.1 26-14.6 34.6-15.2 35C1084.1 1054.9 1083.7 1055 1083.3 1055.1zM1029.8 1021.1l16.9 37.8c0 0 16.2-4.8 15.4-12.3C1061.3 1039.2 1029.8 1021.1 1029.8 1021.1z"/><ellipse cx="1044.8" cy="1013.9" fill="#02184f" rx="5.8" ry="10.7" transform="rotate(-45.001 1044.831 1013.964)"/><path fill="#d1634a" d="M1023.8,1008.7c0,0-0.1,0-0.1,0c-0.8-0.1-1.4-0.7-1.3-1.5c0-0.2,1.6-16.3,20.7-15.1
						c0.8,0.1,1.4,0.7,1.3,1.5c-0.1,0.8-0.7,1.4-1.5,1.3c-16.3-1.1-17.7,11.9-17.7,12.5C1025.1,1008.2,1024.5,1008.7,1023.8,1008.7z
						"/><path fill="#002542" d="M1164.7,1165c13.2,12.1,29.1,20.9,46.4,25.3c8,2,17.2,3.1,23.6,8.7c7.2,6.4,7.9,16.8,6.8,25.8
							c-0.4,3.2,4.6,3.2,5,0c1-8.2,0.4-17.2-4.1-24.3c-4.5-7-12-10.4-19.7-12.5c-9.5-2.6-18.9-4.5-27.9-8.7
							c-9.8-4.5-18.7-10.5-26.6-17.8C1165.9,1159.3,1162.3,1162.8,1164.7,1165L1164.7,1165z"/><path fill="#002542" d="M1009.7,995.1c0,0-18.9-36.6,21.7-18c40.7,18.6,17.8,30.4,62.8,31s10.4,72.7,20.3,90.2
							c9.9,17.5,34.8,7.2,32.8,27.2c-2,20,6.1,50.6,30,51.4s76.3,7.1,77.2,28.9c0.9,21.8,20-20.3,20.2-36.6
							c0.3-28.6-15.7-23.7-4.7-46.8c11-23.1-15.2-44.8-34.7-56.2s-33.7,0.9-41.2-53.8s-17.5-64.3-46.9-69.6
							c-29.4-5.3-21.1-22.8-36.5-34.7c-15.4-11.9-97.6-31.4-110.5,33.8C992.1,982.5,1009.7,995.1,1009.7,995.1z"/></g></g></switch></svg>